<svg width="56" height="56" viewBox="0 0 56 56" fill="none" xmlns="http://www.w3.org/2000/svg">
<g filter="url(#filter0_d_447_1181)">
<rect x="4" width="48" height="48" rx="4" fill="white"/>
<g clip-path="url(#clip0_447_1181)">
<path fill-rule="evenodd" clip-rule="evenodd" d="M7.26463 24.2831H14.4332L14.7897 25.6393L12.3455 29.6803H10.7126L13.1799 25.6014H11.4382L8.97101 29.6803H7.33815L9.80538 25.6014H8.10003L5.6328 29.6803H4L7.26463 24.2831ZM25.8575 25.5478L24.1493 28.3719L22.3994 29.6803H18.5138L21.7785 24.2831H25.5185L25.8575 25.5478ZM22.669 28.1197L24.0467 25.8419L23.9854 25.6274H22.5981L20.9583 28.3386H22.3236L22.669 28.1197ZM17.0998 26.2592H19.4477L18.6354 27.5775H16.3024L15.8106 28.3906H18.5454L17.7652 29.6803H13.3977L16.6623 24.2831H16.6708H21.0298L20.2324 25.6014H17.4977L17.0998 26.2592ZM34.6822 24.2835L33.8233 25.6534H30.7931L29.3337 28.0662L29.4058 28.3906H32.1875L31.4171 29.709L27.9211 29.6868L27.4996 28.3989L29.9892 24.2831L34.6822 24.2835ZM27.5114 24.2831H29.1443L25.8797 29.6803H24.2468L27.5114 24.2831Z" fill="#0F0FCF"/>
<path fill-rule="evenodd" clip-rule="evenodd" d="M37.5617 30.3109H39.1945L39.1872 30.3231L41.0213 30.3355L41.4037 31.6879L40.0292 33.9602L38.8746 33.96L39.3202 35.7081H37.6874L37.2416 33.9598H36.9874L35.9299 35.7081H34.297L37.5617 30.3109ZM38.3575 31.6947L37.803 32.6114H39.2123L39.8006 31.6959L38.3575 31.6947ZM32.9487 30.3109H35.7385L36.0949 31.6672L33.6507 35.7081H32.0179L33.0892 33.937H31.3475L30.2762 35.7081H28.6434L31.1106 31.6292L32.9487 30.3109ZM33.8128 32.7407L34.4112 31.6939H32.6696L32.0712 32.7407H33.8128ZM31.3259 30.3114L30.467 31.6813H27.4368L25.9774 34.094L26.0495 34.4185H28.8312L28.0608 35.7368L24.5648 35.7147L24.1433 34.4268L26.6329 30.3109L31.3259 30.3114Z" fill="black"/>
<path fill-rule="evenodd" clip-rule="evenodd" d="M40.5551 23.8048L45.7687 23.7899L49.0341 19.1979L42.7867 20.1602L40.5551 23.8048L34.9862 23.7489L36.6491 21.0331L34.4976 21.4715C32.9537 21.7592 31.7627 21.2839 33.6338 18.7777L30.7977 18.8504L27.7809 23.7775L22.1881 23.7911L25.1929 18.9564L18.8953 18.983L15.2849 24.8795L14.8867 23.4226L20.2883 14.7552L35.6066 13.062C38.9445 12.6185 37.8513 14.6725 37.2785 15.4422L34.4973 19.1801C33.7892 20.1318 32.8217 21.1172 34.9969 20.6445L52 16.9492L41.7538 31.0669L42.7889 28.4085L37.7257 28.4258L40.5551 23.8048ZM25.1929 18.9564L30.7977 18.8504L33.7336 14.0553L27.7377 14.7274L25.1929 18.9564Z" fill="black"/>
<path d="M40.9307 34.947H40.3508L40.2451 35.1437H40.7971C40.884 35.1437 40.9342 35.159 40.9483 35.1895C40.9624 35.2202 40.9472 35.2769 40.9023 35.3602L40.8347 35.486C40.7902 35.5687 40.7444 35.6257 40.6974 35.6561C40.6505 35.6865 40.5839 35.7019 40.497 35.7019H39.9501C39.8634 35.7019 39.8131 35.6865 39.7991 35.6561C39.7848 35.6257 39.8005 35.5687 39.8449 35.486L39.8584 35.4609L40.0612 35.4219L40.003 35.53H40.6291L40.7416 35.321H40.1892C40.1032 35.321 40.0535 35.3056 40.0394 35.2752C40.0258 35.2447 40.0412 35.188 40.0858 35.1051L40.1402 35.0038C40.1849 34.9208 40.2305 34.864 40.277 34.8334C40.3238 34.8029 40.39 34.7876 40.4761 34.7876H40.9787C41.0619 34.7876 41.1115 34.8024 41.1272 34.8316C41.143 34.8611 41.1308 34.9131 41.0904 34.9881L41.0801 35.0073L40.8744 35.0516L40.9307 34.947ZM41.242 35.4272H41.2732C41.2881 35.4272 41.2962 35.4317 41.2978 35.4405C41.299 35.4497 41.2928 35.4668 41.2791 35.4922L41.2018 35.636C41.1868 35.6638 41.1737 35.6818 41.1629 35.6898C41.1517 35.6978 41.1289 35.7019 41.0943 35.7019H40.9414C40.9265 35.7019 40.9184 35.6971 40.9171 35.688C40.9161 35.6788 40.9223 35.6614 40.9359 35.636L41.0133 35.4922C41.0278 35.4651 41.0408 35.4473 41.0517 35.4394C41.0628 35.4314 41.0857 35.4272 41.1203 35.4272H41.242ZM42.4463 34.9453H41.9834L41.8461 35.2004H42.309C42.3448 35.2004 42.372 35.1951 42.3909 35.1845C42.4098 35.1735 42.4266 35.1547 42.4412 35.1275L42.5005 35.0173C42.5148 34.9908 42.5182 34.9721 42.511 34.9612C42.5035 34.9506 42.482 34.9453 42.4463 34.9453ZM41.3741 35.7019L41.8658 34.7876H42.6223C42.6929 34.7876 42.7367 34.8015 42.7531 34.8295C42.7698 34.8573 42.7614 34.9022 42.7279 34.9645L42.6122 35.1795C42.579 35.2411 42.5392 35.2861 42.4923 35.3141C42.4458 35.3422 42.387 35.3564 42.3164 35.3564H42.2009L42.4242 35.7019H42.1286L41.9576 35.3564H41.7623L41.5765 35.7019H41.3741ZM42.8159 35.4272H42.8471C42.862 35.4272 42.8701 35.4317 42.8717 35.4405C42.8728 35.4497 42.8667 35.4668 42.853 35.4922L42.7756 35.636C42.7607 35.6638 42.7475 35.6818 42.7367 35.6898C42.7255 35.6978 42.7028 35.7019 42.6682 35.7019H42.5152C42.5004 35.7019 42.4923 35.6971 42.4909 35.688C42.49 35.6788 42.4961 35.6614 42.5098 35.636L42.5871 35.4922C42.6017 35.4651 42.6147 35.4473 42.6255 35.4394C42.6367 35.4314 42.6595 35.4272 42.6941 35.4272H42.8159ZM43.3047 35.0034C43.3493 34.9205 43.395 34.8638 43.4413 34.8334C43.4877 34.8029 43.554 34.7876 43.6401 34.7876H44.2916C44.378 34.7876 44.4281 34.8029 44.4417 34.8334C44.4557 34.8638 44.4403 34.9205 44.3957 35.0034L44.1363 35.4857C44.0914 35.5693 44.0456 35.6263 43.999 35.6564C43.9527 35.6868 43.8863 35.7019 43.7999 35.7019H43.1484C43.0623 35.7019 43.0123 35.6868 42.9987 35.6564C42.9849 35.6263 43.0002 35.5693 43.0453 35.4857L43.3047 35.0034ZM43.2273 35.53H43.9066L44.2183 34.9506H43.5389L43.2273 35.53ZM44.5504 35.4272H44.5816C44.5965 35.4272 44.6046 35.4317 44.6062 35.4405C44.6073 35.4497 44.6011 35.4668 44.5875 35.4922L44.5101 35.636C44.4952 35.6638 44.482 35.6818 44.4712 35.6898C44.46 35.6978 44.4373 35.7019 44.4027 35.7019H44.2497C44.2349 35.7019 44.2268 35.6971 44.2254 35.688C44.2245 35.6788 44.2306 35.6614 44.2443 35.636L44.3216 35.4922C44.3362 35.4651 44.3492 35.4473 44.36 35.4394C44.3712 35.4314 44.394 35.4272 44.4286 35.4272H44.5504Z" fill="black"/>
</g>
</g>
<defs>
<filter id="filter0_d_447_1181" x="0" y="0" width="56" height="56" filterUnits="userSpaceOnUse" color-interpolation-filters="sRGB">
<feFlood flood-opacity="0" result="BackgroundImageFix"/>
<feColorMatrix in="SourceAlpha" type="matrix" values="0 0 0 0 0 0 0 0 0 0 0 0 0 0 0 0 0 0 127 0" result="hardAlpha"/>
<feOffset dy="4"/>
<feGaussianBlur stdDeviation="2"/>
<feComposite in2="hardAlpha" operator="out"/>
<feColorMatrix type="matrix" values="0 0 0 0 0 0 0 0 0 0 0 0 0 0 0 0 0 0 0.25 0"/>
<feBlend mode="normal" in2="BackgroundImageFix" result="effect1_dropShadow_447_1181"/>
<feBlend mode="normal" in="SourceGraphic" in2="effect1_dropShadow_447_1181" result="shape"/>
</filter>
<clipPath id="clip0_447_1181">
<rect width="48" height="22.7368" fill="white" transform="translate(4 13)"/>
</clipPath>
</defs>
</svg>
