<svg width="136" height="136" viewBox="0 0 136 136" fill="none" xmlns="http://www.w3.org/2000/svg">
<g filter="url(#filter0_d_447_1188)">
<rect x="4" width="128" height="128" rx="8" fill="white"/>
<g clip-path="url(#clip0_447_1188)">
<path fill-rule="evenodd" clip-rule="evenodd" d="M12.7057 64.0882H31.822L32.7727 67.7048L26.2545 78.4807H21.9004L28.4797 67.6036H23.8352L17.256 78.4807H12.9017L19.481 67.6036H14.9334L8.35414 78.4807H4L12.7057 64.0882ZM62.2867 67.4609L57.7315 74.9918L53.065 78.4807H42.7035L51.4093 64.0882H61.3826L62.2867 67.4609ZM53.7839 74.3192L57.4578 68.2452L57.2945 67.6731H53.595L49.222 74.9028H52.8628L53.7839 74.3192ZM38.9328 69.3578H45.1938L43.0279 72.8734H36.8064L35.4949 75.0416H42.7877L40.7073 78.4807H29.0605L37.7661 64.0882H37.7887H49.4129L47.2865 67.6036H39.994L38.9328 69.3578ZM85.8191 64.0893L83.5288 67.7424H75.4484L71.5566 74.1764L71.7488 75.0416H79.1667L77.1123 78.5572L67.7896 78.4981L66.6657 75.0639L73.3046 64.0882L85.8191 64.0893ZM66.6972 64.0883H71.0514L62.3458 78.4808H57.9915L66.6972 64.0883Z" fill="#0F0FCF"/>
<path fill-rule="evenodd" clip-rule="evenodd" d="M93.4978 80.1625H97.8519L97.8324 80.1948L102.724 80.2279L103.743 83.8345L100.078 89.8938L96.9989 89.8934L98.1873 94.555H93.833L92.6443 89.8929H91.9663L89.1462 94.555H84.792L93.4978 80.1625ZM95.62 83.8526L94.1413 86.2971H97.8993L99.4681 83.8557L95.62 83.8526ZM81.1965 80.1625H88.6359L89.5864 83.7792L83.0685 94.555H78.7142L81.5711 89.832H76.9267L74.07 94.555H69.7157L76.2949 83.678L81.1965 80.1625ZM83.5008 86.6418L85.0965 83.8503H80.4521L78.8564 86.6418H83.5008ZM76.8689 80.1637L74.5786 83.8167H66.4981L62.6064 90.2507L62.7986 91.1159H70.2164L68.1621 94.6316L58.8394 94.5725L57.7155 91.1382L64.3544 80.1625L76.8689 80.1637Z" fill="black"/>
<path fill-rule="evenodd" clip-rule="evenodd" d="M101.48 62.8128L115.383 62.7731L124.091 50.5279L107.431 53.094L101.48 62.8128L86.63 62.6638L91.0642 55.4216L85.3271 56.5906C81.2098 57.3579 78.0339 56.0905 83.0236 49.4072L75.4606 49.601L67.4159 62.74L52.5018 62.7764L60.5145 49.8837L43.7207 49.9548L34.093 65.6788L33.0311 61.7936L47.4354 38.6805L88.2842 34.1655C97.1853 32.9827 94.2701 38.4599 92.7426 40.5127L85.326 50.4804C83.4378 53.0181 80.858 55.646 86.6584 54.3854L132 44.5312L104.677 82.1784L107.437 75.0893L93.9353 75.1356L101.48 62.8128ZM60.5145 49.8837L75.4606 49.601L83.2897 36.8142L67.3005 38.6066L60.5145 49.8837Z" fill="black"/>
<path d="M102.482 92.5255H100.936L100.653 93.0499H102.126C102.357 93.0499 102.491 93.0908 102.529 93.172C102.567 93.254 102.526 93.4051 102.406 93.6271L102.226 93.9627C102.107 94.1832 101.985 94.3352 101.86 94.4163C101.735 94.4974 101.557 94.5383 101.325 94.5383H99.8668C99.6359 94.5383 99.5015 94.4974 99.4644 94.4163C99.4262 94.3352 99.468 94.1832 99.5863 93.9627L99.6223 93.8957L100.163 93.7918L100.008 94.08H101.678L101.978 93.5225H100.505C100.275 93.5225 100.143 93.4815 100.105 93.4004C100.069 93.3192 100.11 93.1681 100.229 92.9468L100.374 92.6768C100.493 92.4554 100.615 92.3041 100.739 92.2223C100.863 92.1411 101.04 92.1002 101.27 92.1002H102.61C102.832 92.1002 102.964 92.1396 103.006 92.2175C103.048 92.2963 103.015 92.435 102.908 92.635L102.88 92.686L102.332 92.8042L102.482 92.5255ZM103.312 93.806H103.395C103.435 93.806 103.457 93.8178 103.461 93.8414C103.464 93.8658 103.447 93.9115 103.411 93.9791L103.205 94.3628C103.165 94.4367 103.13 94.4848 103.101 94.506C103.071 94.5273 103.01 94.5383 102.918 94.5383H102.51C102.471 94.5383 102.449 94.5257 102.446 94.5014C102.443 94.4769 102.459 94.4304 102.496 94.3628L102.702 93.9791C102.741 93.9068 102.776 93.8595 102.804 93.8383C102.834 93.8169 102.895 93.806 102.987 93.806H103.312ZM106.523 92.5208H105.289L104.923 93.2012H106.157C106.253 93.2012 106.325 93.1869 106.376 93.1586C106.426 93.1295 106.471 93.0791 106.51 93.0066L106.668 92.7128C106.706 92.642 106.715 92.5924 106.696 92.5632C106.676 92.535 106.619 92.5208 106.523 92.5208ZM103.664 94.5383L104.975 92.1002H106.993C107.181 92.1002 107.298 92.1372 107.341 92.212C107.386 92.2861 107.364 92.4058 107.274 92.5719L106.966 93.1452C106.877 93.3097 106.771 93.4296 106.646 93.5043C106.522 93.5792 106.365 93.6169 106.177 93.6169H105.869L106.464 94.5383H105.676L105.22 93.6169H104.699L104.204 94.5383H103.664ZM107.509 93.806H107.592C107.632 93.806 107.654 93.8178 107.658 93.8414C107.661 93.8658 107.644 93.9115 107.608 93.9791L107.402 94.3628C107.362 94.4367 107.327 94.4848 107.298 94.506C107.268 94.5273 107.207 94.5383 107.115 94.5383H106.707C106.668 94.5383 106.646 94.5257 106.642 94.5014C106.64 94.4769 106.656 94.4304 106.693 94.3628L106.899 93.9791C106.938 93.9068 106.972 93.8595 107.001 93.8383C107.031 93.8169 107.092 93.806 107.184 93.806H107.509ZM108.813 92.6758C108.932 92.4547 109.053 92.3033 109.177 92.2223C109.301 92.1411 109.477 92.1002 109.707 92.1002H111.444C111.675 92.1002 111.808 92.1411 111.845 92.2223C111.882 92.3033 111.841 92.4547 111.722 92.6758L111.03 93.9618C110.91 94.1847 110.788 94.3367 110.664 94.417C110.54 94.4982 110.363 94.5383 110.133 94.5383H108.396C108.166 94.5383 108.033 94.4982 107.997 94.417C107.96 94.3367 108.001 94.1847 108.121 93.9618L108.813 92.6758ZM108.606 94.08H110.418L111.249 92.5349H109.437L108.606 94.08ZM112.134 93.806H112.217C112.257 93.806 112.279 93.8178 112.283 93.8414C112.286 93.8658 112.27 93.9115 112.233 93.9791L112.027 94.3628C111.987 94.4367 111.952 94.4848 111.923 94.506C111.893 94.5273 111.833 94.5383 111.74 94.5383H111.333C111.293 94.5383 111.271 94.5257 111.268 94.5014C111.265 94.4769 111.282 94.4304 111.318 94.3628L111.524 93.9791C111.563 93.9068 111.598 93.8595 111.627 93.8383C111.656 93.8169 111.717 93.806 111.81 93.806H112.134Z" fill="black"/>
</g>
</g>
<defs>
<filter id="filter0_d_447_1188" x="0" y="0" width="136" height="136" filterUnits="userSpaceOnUse" color-interpolation-filters="sRGB">
<feFlood flood-opacity="0" result="BackgroundImageFix"/>
<feColorMatrix in="SourceAlpha" type="matrix" values="0 0 0 0 0 0 0 0 0 0 0 0 0 0 0 0 0 0 127 0" result="hardAlpha"/>
<feOffset dy="4"/>
<feGaussianBlur stdDeviation="2"/>
<feComposite in2="hardAlpha" operator="out"/>
<feColorMatrix type="matrix" values="0 0 0 0 0 0 0 0 0 0 0 0 0 0 0 0 0 0 0.25 0"/>
<feBlend mode="normal" in2="BackgroundImageFix" result="effect1_dropShadow_447_1188"/>
<feBlend mode="normal" in="SourceGraphic" in2="effect1_dropShadow_447_1188" result="shape"/>
</filter>
<clipPath id="clip0_447_1188">
<rect width="128" height="60.6316" fill="white" transform="translate(4 34)"/>
</clipPath>
</defs>
</svg>
