<svg width="225" height="28" viewBox="0 0 225 28" fill="none" xmlns="http://www.w3.org/2000/svg">
<path d="M23.1898 27.4876L14.3275 21.1011L5.37013 27.3455L8.70615 16.9479L0 10.3545L10.9192 10.3152L14.4988 0L17.9097 10.3723L28.8314 10.5893L20.0162 17.038L23.1898 27.4876Z" fill="#0038FF"/>
<path d="M72.2276 27.4876L63.3718 21.1011L54.4118 27.3455L57.7491 16.9479L49.043 10.3545L59.9609 10.3152L63.5393 0L66.9527 10.3723L77.8706 10.5893L69.0604 17.038L72.2276 27.4876Z" fill="#0038FF"/>
<path d="M121.269 27.4876L112.415 21.1011L103.452 27.3455L106.792 16.9479L98.0835 10.3545L109.004 10.3152L112.585 0L115.996 10.3723L126.915 10.5893L118.101 17.038L121.269 27.4876Z" fill="#0038FF"/>
<path d="M170.314 27.4876L161.457 21.1011L152.494 27.3455L155.833 16.9479L147.126 10.3545L158.047 10.3152L161.625 0L165.039 10.3723L175.957 10.5893L167.145 17.038L170.314 27.4876Z" fill="#0038FF"/>
<path d="M219.356 27.4876L210.497 21.1011L201.538 27.3455L204.875 16.9479L196.17 10.3545L207.085 10.3152L210.666 0L214.082 10.3723L225 10.5893L216.186 17.038L219.356 27.4876Z" fill="#0038FF"/>
</svg>
