<svg width="66" height="80" viewBox="0 0 66 80" fill="none" xmlns="http://www.w3.org/2000/svg">
<path d="M50.9167 14.9167C53.8908 14.9167 56.2917 12.5158 56.2917 9.54166C56.2917 7.17666 53.9267 3.66499 52.3142 1.58666C51.5975 0.654992 50.2 0.654992 49.4833 1.58666C47.9067 3.66499 45.5417 7.17666 45.5417 9.54166C45.5417 12.5158 47.9425 14.9167 50.9167 14.9167ZM33 14.9167C35.9742 14.9167 38.375 12.5158 38.375 9.54166C38.375 7.17666 36.01 3.66499 34.3975 1.58666C33.6808 0.654992 32.2833 0.654992 31.5667 1.58666C29.99 3.66499 27.625 7.17666 27.625 9.54166C27.625 12.5158 30.0258 14.9167 33 14.9167ZM15.0833 14.9167C18.0575 14.9167 20.4583 12.5158 20.4583 9.54166C20.4583 7.17666 18.0933 3.66499 16.4808 1.58666C15.7642 0.654992 14.3667 0.654992 13.65 1.58666C12.0733 3.66499 9.70833 7.17666 9.70833 9.54166C9.70833 12.5158 12.1092 14.9167 15.0833 14.9167ZM57.7967 25.7025C57.08 23.5883 55.0733 22.0833 52.7083 22.0833H13.2917C10.9267 22.0833 8.95583 23.5883 8.20333 25.7025L1.14417 46.02C0.893333 46.7725 0.75 47.5608 0.75 48.385V74.0417C0.75 77.0158 3.15083 79.4167 6.125 79.4167C9.09917 79.4167 11.5 77.0158 11.5 74.0417V72.25H54.5V74.0417C54.5 76.98 56.9008 79.4167 59.875 79.4167C62.8133 79.4167 65.25 77.0158 65.25 74.0417V48.385C65.25 47.5967 65.1067 46.7725 64.8558 46.02L57.7967 25.7025ZM13.2917 61.5C10.3175 61.5 7.91667 59.0992 7.91667 56.125C7.91667 53.1508 10.3175 50.75 13.2917 50.75C16.2658 50.75 18.6667 53.1508 18.6667 56.125C18.6667 59.0992 16.2658 61.5 13.2917 61.5ZM52.7083 61.5C49.7342 61.5 47.3333 59.0992 47.3333 56.125C47.3333 53.1508 49.7342 50.75 52.7083 50.75C55.6825 50.75 58.0833 53.1508 58.0833 56.125C58.0833 59.0992 55.6825 61.5 52.7083 61.5ZM7.91667 43.5833L12.4675 29.895C12.9692 28.4617 14.3308 27.4583 15.8717 27.4583H50.1283C51.6692 27.4583 53.0308 28.4617 53.5325 29.895L58.0833 43.5833H7.91667Z" fill="#F6F6FF"/>
</svg>
