<svg width="77" height="77" viewBox="0 0 77 77" fill="none" xmlns="http://www.w3.org/2000/svg">
<path d="M17.1576 4.04897L17.1573 4.04814C16.2794 1.34818 13.429 -0.144637 10.7664 0.770702L7.0596 2.04502C7.05947 2.04506 7.05935 2.0451 7.05923 2.04515C3.12756 3.39178 0.5 7.1768 0.5 11.4103V29.1216C0.5 40.5872 8.31818 50.1696 18.783 52.5168C19.9117 65.9459 30.8324 76.5 44.1818 76.5C58.2792 76.5 69.6818 64.7177 69.6818 50.2169V40.1784C73.7225 38.2292 76.5 34.005 76.5 29.1216C76.5 22.385 71.2053 16.902 64.6364 16.902C58.0674 16.902 52.7727 22.385 52.7727 29.1216C52.7727 34.005 55.5502 38.2292 59.5909 40.1784V50.2169C59.5909 59.0234 52.6839 66.1243 44.1818 66.1243C36.4175 66.1243 29.982 60.2007 28.9237 52.4658C39.262 50.0304 46.9545 40.4979 46.9545 29.1216V11.4103C46.9545 7.16192 44.3268 3.39181 40.4097 2.04521L36.7023 0.770702C34.0414 -0.14406 31.1894 1.33182 30.3112 4.04897C29.4358 6.75738 30.8378 9.6956 33.4937 10.6086L36.8636 11.7671V29.1216C36.8636 36.6243 30.9651 42.6851 23.7273 42.6851C16.4894 42.6851 10.5909 36.6243 10.5909 29.1216V11.7676L13.9745 10.6088L13.9759 10.6083C16.6151 9.69561 18.0335 6.75908 17.1576 4.04897ZM67.4915 32.0883C66.7316 32.8721 65.7042 33.3094 64.6364 33.3094C63.5685 33.3094 62.5411 32.8721 61.7812 32.0883C61.0208 31.304 60.5909 30.2371 60.5909 29.1216C60.5909 28.006 61.0208 26.9391 61.7812 26.1548C62.5411 25.3711 63.5685 24.9337 64.6364 24.9337C65.7042 24.9337 66.7316 25.3711 67.4915 26.1548C68.252 26.9391 68.6818 28.006 68.6818 29.1216C68.6818 30.2371 68.252 31.304 67.4915 32.0883Z" fill="#178BF6" stroke="#178BF6"/>
</svg>
