<svg width="75" height="75" viewBox="0 0 75 75" fill="none" xmlns="http://www.w3.org/2000/svg">
<path d="M62.0781 0.000139229C61.6473 0.00509562 61.572 0.0971885 61.5646 0.105662C61.5571 0.114296 61.4765 0.202392 61.533 0.6304C61.5897 1.05841 61.8139 1.7264 62.2281 2.48936C63.0565 4.01529 64.6091 5.92158 66.6308 7.67614C68.6523 9.43087 70.7568 10.6987 72.3823 11.3026C73.1951 11.6045 73.8871 11.7316 74.318 11.7266C74.7488 11.7218 74.8243 11.6297 74.8318 11.6211C74.8391 11.6125 74.9194 11.5245 74.8629 11.0965C74.8063 10.6685 74.5821 10.0005 74.1678 9.23757C73.3396 7.71164 71.7868 5.80535 69.7652 4.05063C67.7437 2.29607 65.6389 1.02819 64.0133 0.42431C63.2006 0.12229 62.5091 -0.00481716 62.0781 0.000139229ZM37.5 6.03862C16.7893 6.03862 0 22.8604 0 43.6112C0 53.6757 3.94947 62.8158 10.3803 69.5608C-4.18819 77.3577 26.8345 74.3089 37.5 74.3089C48.138 74.3089 77.9499 78.6513 69.2422 65.5667C73.852 57.4332 75 53.7034 75 43.6112C75 33.2455 70.8102 23.8605 64.0352 17.0627L52.6864 23.8044L57.6038 11.8899C51.7934 8.18553 44.8972 6.03862 37.5 6.03862ZM62.3965 7.80853L58.6337 16.9257L67.1036 11.894L64.7515 9.85264L64.7502 9.85152L64.7489 9.85024L62.3965 7.80853ZM37.5 19.1491C50.967 19.1491 61.9149 30.1182 61.9149 43.6112C61.9149 57.1043 50.967 68.0734 37.5 68.0734C24.033 68.0734 13.0851 57.1043 13.0851 43.6112C13.0851 30.1182 24.033 19.1491 37.5 19.1491ZM37.5 22.027C34.242 22.027 31.1558 22.7496 28.3899 24.0418C30.2325 29.2988 33.3859 35.9368 37.5 35.9368C41.6207 35.9368 44.669 29.2777 46.5562 24.0167C43.804 22.7404 40.7368 22.027 37.5 22.027ZM53.2583 28.8828C48.8359 32.2632 43.5016 37.323 44.7737 41.2461C46.0473 45.1735 53.3122 46.0199 58.8895 46.1922C58.9897 45.3458 59.0426 44.485 59.0426 43.6112C59.0426 37.9127 56.8476 32.7372 53.2583 28.8828ZM21.7058 28.9216C18.1377 32.7718 15.9574 37.9317 15.9574 43.6112C15.9574 44.4986 16.0117 45.3728 16.1151 46.2317C21.6736 46.0998 28.9419 45.1456 30.2126 41.2274C31.485 37.3035 26.1147 32.3454 21.7058 28.9216ZM32.906 35.8994C32.6448 35.9069 32.3905 35.9857 32.1706 36.1272C31.9508 36.2688 31.7736 36.4678 31.6583 36.7028C31.5429 36.9378 31.4938 37.1998 31.5161 37.4607C31.5385 37.7216 31.6314 37.9715 31.785 38.1833C31.9304 38.384 32.1251 38.5436 32.3502 38.6466C32.5753 38.7496 32.8232 38.7927 33.0697 38.7715C33.3163 38.7503 33.5532 38.6656 33.7575 38.5257C33.9619 38.3857 34.1266 38.1953 34.2358 37.9728C34.345 37.7503 34.395 37.5033 34.3809 37.2557C34.3668 37.0082 34.289 36.7685 34.1553 36.5599C34.0215 36.3513 33.8361 36.1808 33.6173 36.0651C33.3984 35.9494 33.1534 35.8923 32.906 35.8994ZM42.094 35.8994C41.8466 35.8923 41.6016 35.9494 41.3827 36.0651C41.1638 36.1808 40.9785 36.3513 40.8447 36.5599C40.711 36.7685 40.6332 37.0082 40.6191 37.2557C40.605 37.5033 40.655 37.7503 40.7642 37.9728C40.8734 38.1953 41.0381 38.3857 41.2425 38.5257C41.4468 38.6656 41.6837 38.7503 41.9303 38.7715C42.1768 38.7927 42.4247 38.7496 42.6498 38.6466C42.8749 38.5436 43.0696 38.384 43.215 38.1833C43.3686 37.9715 43.4615 37.7216 43.4839 37.4607C43.5062 37.1998 43.457 36.9378 43.3417 36.7028C43.2264 36.4678 43.0492 36.2688 42.8294 36.1272C42.6095 35.9857 42.3552 35.9069 42.094 35.8994ZM37.5 38.495C34.6798 38.495 32.3936 40.7856 32.3936 43.6112C32.3936 46.4369 34.6798 48.7275 37.5 48.7275C40.3202 48.7275 42.6064 46.4369 42.6064 43.6112C42.6064 40.7856 40.3202 38.495 37.5 38.495ZM30.1122 44.5764C29.8873 44.5797 29.6663 44.6358 29.467 44.7402C29.2677 44.8447 29.0956 44.9946 28.9647 45.1778C28.8338 45.3611 28.7477 45.5726 28.7133 45.7953C28.6789 46.018 28.6972 46.2457 28.7666 46.46C28.8844 46.823 29.1411 47.1242 29.4805 47.2974C29.8198 47.4707 30.214 47.5017 30.5762 47.3838C30.9031 47.2775 31.1811 47.0571 31.3597 46.7629C31.5383 46.4686 31.6057 46.1199 31.5495 45.7801C31.4933 45.4404 31.3174 45.1321 31.0537 44.9112C30.7899 44.6903 30.4559 44.5715 30.1122 44.5764ZM44.8096 44.5774C44.451 44.5918 44.1108 44.7402 43.8559 44.9933C43.601 45.2465 43.45 45.5861 43.4326 45.9453C43.4151 46.3044 43.5325 46.6571 43.7617 46.9339C43.9908 47.2107 44.3151 47.3914 44.6706 47.4406C45.0261 47.4898 45.3871 47.4039 45.6825 47.1997C45.978 46.9955 46.1864 46.6879 46.2667 46.3374C46.3471 45.9869 46.2936 45.619 46.1167 45.3061C45.9399 44.9932 45.6525 44.758 45.3112 44.6468C45.1494 44.5941 44.9796 44.5706 44.8096 44.5774ZM30.226 49.0086C26.7807 49.0252 22.2089 51.6997 18.6689 54.1133C21.7055 59.5762 27.0402 63.5727 33.3726 64.7995C34.9668 59.461 36.312 52.2298 32.9823 49.8061C32.2077 49.2422 31.2689 49.0035 30.226 49.0086ZM44.7498 49.0118C43.6998 49.0118 42.7564 49.2542 41.9818 49.8179C38.6475 52.2451 40.0888 59.4279 41.6486 64.7955C47.9816 63.562 53.3148 59.5577 56.3454 54.0876C52.8338 51.6535 48.2175 49.0118 44.7498 49.0116V49.0118ZM37.5 49.9394C37.1191 49.9394 36.7538 50.091 36.4845 50.3609C36.2151 50.6307 36.0638 50.9967 36.0638 51.3784C36.0638 51.76 36.2151 52.126 36.4845 52.3959C36.7538 52.6657 37.1191 52.8173 37.5 52.8173C37.8809 52.8173 38.2462 52.6657 38.5155 52.3959C38.7849 52.126 38.9362 51.76 38.9362 51.3784C38.9362 50.9967 38.7849 50.6307 38.5155 50.3609C38.2462 50.091 37.8809 49.9394 37.5 49.9394Z" fill="#178BF6"/>
</svg>
