<svg width="55" height="56" viewBox="0 0 55 56" fill="none" xmlns="http://www.w3.org/2000/svg">
<rect y="0.5" width="55" height="55" rx="27.5" fill="#178BF6"/>
<path d="M34.0108 37.796C34.3201 37.796 34.5654 37.8867 34.7467 38.068C34.9281 38.2493 35.0188 38.484 35.0188 38.772V40.5H19.7228V39.524C19.7228 39.3213 19.7654 39.1133 19.8508 38.9C19.9361 38.6867 20.0694 38.4893 20.2508 38.308L27.5948 30.932C28.2028 30.3133 28.7574 29.7213 29.2588 29.156C29.7601 28.58 30.1868 28.004 30.5388 27.428C30.8908 26.852 31.1628 26.2707 31.3548 25.684C31.5468 25.0867 31.6428 24.452 31.6428 23.78C31.6428 23.108 31.5361 22.5213 31.3228 22.02C31.1094 21.508 30.8161 21.0867 30.4428 20.756C30.0801 20.4253 29.6481 20.18 29.1468 20.02C28.6454 19.8493 28.1068 19.764 27.5308 19.764C26.9441 19.764 26.4054 19.8493 25.9148 20.02C25.4241 20.1907 24.9868 20.4307 24.6028 20.74C24.2294 21.0387 23.9148 21.396 23.6588 21.812C23.4028 22.228 23.2214 22.6867 23.1148 23.188C22.9868 23.5613 22.8108 23.812 22.5868 23.94C22.3734 24.0573 22.0694 24.0893 21.6748 24.036L20.1868 23.78C20.3361 22.7347 20.6241 21.812 21.0508 21.012C21.4881 20.2013 22.0321 19.524 22.6828 18.98C23.3441 18.436 24.0961 18.0253 24.9388 17.748C25.7814 17.46 26.6934 17.316 27.6748 17.316C28.6454 17.316 29.5521 17.46 30.3948 17.748C31.2374 18.036 31.9681 18.4573 32.5868 19.012C33.2054 19.556 33.6908 20.2227 34.0428 21.012C34.3948 21.8013 34.5708 22.6973 34.5708 23.7C34.5708 24.5533 34.4428 25.348 34.1868 26.084C33.9308 26.8093 33.5841 27.5027 33.1468 28.164C32.7094 28.8253 32.2028 29.4707 31.6268 30.1C31.0614 30.7293 30.4588 31.364 29.8188 32.004L23.7708 38.18C24.1974 38.0627 24.6294 37.972 25.0668 37.908C25.5041 37.8333 25.9254 37.796 26.3308 37.796H34.0108Z" fill="#F6F6FF"/>
</svg>
