<svg width="17" height="19" viewBox="0 0 17 19" fill="none" xmlns="http://www.w3.org/2000/svg">
<path d="M8.48214 9.5C9.76763 9.5 11.0005 8.99955 11.9094 8.10876C12.8184 7.21796 13.3291 6.00978 13.3291 4.75C13.3291 3.49022 12.8184 2.28204 11.9094 1.39124C11.0005 0.500445 9.76763 0 8.48214 0C7.19665 0 5.96382 0.500445 5.05484 1.39124C4.14586 2.28204 3.6352 3.49022 3.6352 4.75C3.6352 6.00978 4.14586 7.21796 5.05484 8.10876C5.96382 8.99955 7.19665 9.5 8.48214 9.5ZM6.75163 11.2812C3.02176 11.2812 0 14.2426 0 17.8979C0 18.5064 0.503627 19 1.12464 19H15.8396C16.4607 19 16.9643 18.5064 16.9643 17.8979C16.9643 14.2426 13.9425 11.2812 10.2127 11.2812H6.75163Z" fill="#178BF6"/>
</svg>
