<svg width="89" height="63" viewBox="0 0 89 63" fill="none" xmlns="http://www.w3.org/2000/svg">
<path d="M23.8177 9H31.1451V22.5H15.4752L19.7021 11.8266C20.3695 10.125 21.9963 9 23.8177 9ZM37.8191 22.5V9H49.1092C50.4579 9 51.7371 9.61875 52.5852 10.6875L61.9288 22.5H37.8191ZM73.4413 22.6406L59.5373 5.0625C57.0067 1.85625 53.1692 0 49.1092 0H23.8177C18.3534 0 13.4452 3.36094 11.4292 8.47969L5.64506 23.1187C2.33589 24.4406 0 27.6891 0 31.5V47.25C0 49.7391 1.98828 51.75 4.44931 51.75H9.07936C10.1361 58.1344 15.6282 63 22.2465 63C28.8649 63 34.357 58.1344 35.4137 51.75H53.5863C54.643 58.1344 60.1351 63 66.7535 63C73.3718 63 78.8639 58.1344 79.9206 51.75H84.5507C87.0117 51.75 89 49.7391 89 47.25V40.5C89 31.3313 82.2148 23.7656 73.4552 22.6406H73.4413ZM60.441 47.25C60.7243 46.4029 61.1711 45.6211 61.7556 44.9501C62.3401 44.2791 63.0506 43.7323 63.8458 43.3414C64.641 42.9505 65.5051 42.7233 66.3879 42.673C67.2707 42.6227 68.1545 42.7503 68.9881 43.0484C69.8217 43.3465 70.5885 43.8092 71.2438 44.4095C71.8991 45.0099 72.4299 45.7359 72.8054 46.5455C73.1809 47.3551 73.3937 48.2321 73.4312 49.1256C73.4688 50.019 73.3304 50.9111 73.0242 51.75C72.741 52.5971 72.2941 53.3789 71.7096 54.0499C71.1251 54.7209 70.4146 55.2677 69.6194 55.6586C68.8242 56.0495 67.9601 56.2767 67.0773 56.327C66.1946 56.3773 65.3107 56.2497 64.4771 55.9516C63.6435 55.6535 62.8768 55.1908 62.2215 54.5905C61.5662 53.9901 61.0353 53.2641 60.6598 52.4545C60.2843 51.6449 60.0716 50.7679 60.034 49.8744C59.9965 48.981 60.1348 48.0889 60.441 47.25ZM22.2465 42.75C24.0166 42.75 25.7141 43.4612 26.9657 44.727C28.2173 45.9929 28.9205 47.7098 28.9205 49.5C28.9205 51.2902 28.2173 53.0071 26.9657 54.273C25.7141 55.5388 24.0166 56.25 22.2465 56.25C20.4765 56.25 18.7789 55.5388 17.5273 54.273C16.2757 53.0071 15.5726 51.2902 15.5726 49.5C15.5726 47.7098 16.2757 45.9929 17.5273 44.727C18.7789 43.4612 20.4765 42.75 22.2465 42.75Z" fill="#F6F6FF"/>
</svg>
