<svg width="75" height="75" viewBox="0 0 75 75" fill="none" xmlns="http://www.w3.org/2000/svg">
<path d="M25.5859 6.71092C28.1489 2.52961 32.6597 0 37.4927 0C42.3257 0 46.8365 2.52961 49.3995 6.71092L55.0526 15.8919L59.0069 13.5706C60.2371 12.8415 61.7749 12.9457 62.9026 13.8236C64.0303 14.7015 64.5282 16.1895 64.1621 17.5883L60.7351 30.5934C60.2371 32.4981 58.3039 33.629 56.4293 33.1231L43.6291 29.6411C42.2525 29.2691 41.2419 28.0936 41.0515 26.6651C40.8611 25.2366 41.5495 23.823 42.7797 23.1088L46.939 20.6684L41.447 11.7553C40.5975 10.3714 39.1037 9.52325 37.4927 9.52325C35.8817 9.52325 34.3878 10.3714 33.5384 11.7553L30.9754 15.9217C29.628 18.1239 26.7868 18.8233 24.59 17.4841C22.3492 16.1151 21.6316 13.1391 23.0229 10.8773L25.5859 6.71092ZM62.9026 37.4829C65.0994 36.1437 67.9406 36.8431 69.288 39.0453L72.8615 44.8634C74.2382 47.1103 74.9705 49.6846 74.9998 52.3332C75.0437 60.2346 68.7461 66.6776 60.9694 66.6776L46.8658 66.6628V71.4244C46.8658 72.8677 46.0163 74.1772 44.6983 74.7278C43.3802 75.2783 41.8717 74.9807 40.8611 73.954L31.488 64.4307C30.1113 63.032 30.1113 60.7702 31.488 59.3864L40.8611 49.8631C41.8717 48.8364 43.3802 48.5388 44.6983 49.0894C46.0163 49.6399 46.8658 50.9494 46.8658 52.3928V57.1544H60.9547C63.5324 57.1544 65.6267 55.0117 65.612 52.3928C65.612 51.5148 65.363 50.6518 64.909 49.9078L61.3355 44.0897C59.9442 41.8279 60.6472 38.8519 62.9026 37.4829ZM9.50515 32.8701L5.2726 30.3851C4.04238 29.656 3.35405 28.2573 3.54444 26.8288C3.73483 25.4003 4.74537 24.2248 6.12204 23.8528L18.9222 20.3708C20.7968 19.8649 22.73 20.9958 23.228 22.9004L26.655 35.8907C27.0212 37.2895 26.5232 38.7626 25.3955 39.6554C24.2678 40.5482 22.73 40.6375 21.4998 39.9084L17.6187 37.6317L10.0763 49.8929C9.62231 50.6369 9.37334 51.5 9.37334 52.3779C9.3587 54.9968 11.453 57.1395 14.0306 57.1395H18.7465C21.3387 57.1395 23.433 59.2673 23.433 61.9011C23.433 64.5349 21.3387 66.6628 18.7465 66.6628H14.0306C6.25385 66.6628 -0.043708 60.2346 0.00022851 52.3184C0.014874 49.6697 0.747148 47.0954 2.13847 44.8486L9.50515 32.8701Z" fill="#178BF6"/>
<path d="M25.5859 6.71092C28.1489 2.52961 32.6597 0 37.4927 0C42.3257 0 46.8365 2.52961 49.3995 6.71092L55.0526 15.8919L59.0069 13.5706C60.2371 12.8415 61.7749 12.9457 62.9026 13.8236C64.0303 14.7015 64.5282 16.1895 64.1621 17.5883L60.7351 30.5934C60.2371 32.4981 58.3039 33.629 56.4293 33.1231L43.6291 29.6411C42.2525 29.2691 41.2419 28.0936 41.0515 26.6651C40.8611 25.2366 41.5495 23.823 42.7797 23.1088L46.939 20.6684L41.447 11.7553C40.5975 10.3714 39.1037 9.52325 37.4927 9.52325C35.8817 9.52325 34.3878 10.3714 33.5384 11.7553L30.9754 15.9217C29.628 18.1239 26.7868 18.8233 24.59 17.4841C22.3492 16.1151 21.6316 13.1391 23.0229 10.8773L25.5859 6.71092ZM62.9026 37.4829C65.0994 36.1437 67.9406 36.8431 69.288 39.0453L72.8615 44.8634C74.2382 47.1103 74.9705 49.6846 74.9998 52.3332C75.0437 60.2346 68.7461 66.6776 60.9694 66.6776L46.8658 66.6628V71.4244C46.8658 72.8677 46.0163 74.1772 44.6983 74.7278C43.3802 75.2783 41.8717 74.9807 40.8611 73.954L31.488 64.4307C30.1113 63.032 30.1113 60.7702 31.488 59.3864L40.8611 49.8631C41.8717 48.8364 43.3802 48.5388 44.6983 49.0894C46.0163 49.6399 46.8658 50.9494 46.8658 52.3928V57.1544H60.9547C63.5324 57.1544 65.6267 55.0117 65.612 52.3928C65.612 51.5148 65.363 50.6518 64.909 49.9078L61.3355 44.0897C59.9442 41.8279 60.6472 38.8519 62.9026 37.4829ZM9.50515 32.8701L5.2726 30.3851C4.04238 29.656 3.35405 28.2573 3.54444 26.8288C3.73483 25.4003 4.74537 24.2248 6.12204 23.8528L18.9222 20.3708C20.7968 19.8649 22.73 20.9958 23.228 22.9004L26.655 35.8907C27.0212 37.2895 26.5232 38.7626 25.3955 39.6554C24.2678 40.5482 22.73 40.6375 21.4998 39.9084L17.6187 37.6317L10.0763 49.8929C9.62231 50.6369 9.37334 51.5 9.37334 52.3779C9.3587 54.9968 11.453 57.1395 14.0306 57.1395H18.7465C21.3387 57.1395 23.433 59.2673 23.433 61.9011C23.433 64.5349 21.3387 66.6628 18.7465 66.6628H14.0306C6.25385 66.6628 -0.043708 60.2346 0.00022851 52.3184C0.014874 49.6697 0.747148 47.0954 2.13847 44.8486L9.50515 32.8701Z" stroke="#178BF6"/>
</svg>
