<svg width="75" height="75" viewBox="0 0 75 75" fill="none" xmlns="http://www.w3.org/2000/svg">
<path d="M25.894 72.9136C23.1115 75.6955 18.5882 75.6955 15.7908 72.9136L2.08685 59.1974C-0.695616 56.4155 -0.695616 51.893 2.08685 49.0963L9.63074 41.5539L16.7729 48.6946C17.6954 49.6169 19.2131 49.6169 20.1357 48.6946C21.0582 47.7722 21.0582 46.2548 20.1357 45.3325L12.9935 38.1918L19.1536 32.0329L26.2958 39.1736C27.2183 40.096 28.736 40.096 29.6585 39.1736C30.581 38.2513 30.581 36.7339 29.6585 35.8115L22.5164 28.6708L28.6765 22.5119L35.8186 29.6526C36.7411 30.575 38.2589 30.575 39.1814 29.6526C40.1039 28.7303 40.1039 27.2129 39.1814 26.2905L32.0392 19.1498L38.1993 12.9909L45.3415 20.1317C46.264 21.054 47.7817 21.054 48.7042 20.1317C49.6268 19.2093 49.6268 17.6919 48.7042 16.7696L41.5621 9.62883L49.106 2.08643C51.8885 -0.695478 56.4118 -0.695478 59.2092 2.08643L72.9132 15.7877C75.6956 18.5696 75.6956 23.0921 72.9132 25.8889L25.894 72.9136Z" fill="#178BF6"/>
</svg>
