<svg width="64" height="64" viewBox="0 0 64 64" fill="none" xmlns="http://www.w3.org/2000/svg">
<path d="M44 40C55.05 40 64 31.05 64 20C64 18.0875 63.725 16.2375 63.225 14.475C62.8375 13.125 61.175 12.825 60.1875 13.8125L50.5875 23.4125C50.2125 23.7875 49.7 24 49.175 24H42C40.9 24 40 23.1 40 22V14.825C40 14.3 40.2125 13.7875 40.5875 13.4125L50.1875 3.8125C51.175 2.825 50.8625 1.1625 49.525 0.775C47.7625 0.275 45.9125 0 44 0C32.95 0 24 8.95 24 20C24 22.3875 24.425 24.6875 25.1875 26.8125L2.4875 49.5125C0.9 51.1 0 53.2625 0 55.5125C0 60.2 3.8 64 8.4875 64C10.7375 64 12.9 63.1 14.4875 61.5125L37.1875 38.8125C39.3125 39.5875 41.6125 40 44 40ZM10 51C10.7956 51 11.5587 51.3161 12.1213 51.8787C12.6839 52.4413 13 53.2043 13 54C13 54.7957 12.6839 55.5587 12.1213 56.1213C11.5587 56.6839 10.7956 57 10 57C9.20435 57 8.44129 56.6839 7.87868 56.1213C7.31607 55.5587 7 54.7957 7 54C7 53.2043 7.31607 52.4413 7.87868 51.8787C8.44129 51.3161 9.20435 51 10 51Z" fill="#178BF6"/>
</svg>
