<svg width="64" height="64" viewBox="0 0 64 64" fill="none" xmlns="http://www.w3.org/2000/svg">
<path d="M24 0C21.7875 0 20 1.7875 20 4V8V8.025C15.175 8.3 10.9625 11.4375 9.35 16.0375L4.95 28.6C2.05 29.8 0 32.6625 0 36V54V60C0 62.2125 1.7875 64 4 64H8C10.2125 64 12 62.2125 12 60V54H52V60C52 62.2125 53.7875 64 56 64H60C62.2125 64 64 62.2125 64 60V54V36C64 32.6625 61.95 29.8 59.05 28.6L54.65 16.0375C53.0375 11.4375 48.825 8.2875 44 8.025V8V4C44 1.7875 42.2125 0 40 0L24 0ZM20.675 16H43.325C45.025 16 46.5375 17.075 47.1 18.675L50.3625 28H13.6375L16.9 18.675C17.4625 17.075 18.975 16 20.675 16ZM12 36C13.0609 36 14.0783 36.4214 14.8284 37.1716C15.5786 37.9217 16 38.9391 16 40C16 41.0609 15.5786 42.0783 14.8284 42.8284C14.0783 43.5786 13.0609 44 12 44C10.9391 44 9.92172 43.5786 9.17157 42.8284C8.42143 42.0783 8 41.0609 8 40C8 38.9391 8.42143 37.9217 9.17157 37.1716C9.92172 36.4214 10.9391 36 12 36ZM48 40C48 38.9391 48.4214 37.9217 49.1716 37.1716C49.9217 36.4214 50.9391 36 52 36C53.0609 36 54.0783 36.4214 54.8284 37.1716C55.5786 37.9217 56 38.9391 56 40C56 41.0609 55.5786 42.0783 54.8284 42.8284C54.0783 43.5786 53.0609 44 52 44C50.9391 44 49.9217 43.5786 49.1716 42.8284C48.4214 42.0783 48 41.0609 48 40Z" fill="#F6F6FF"/>
</svg>
