<svg width="75" height="75" viewBox="0 0 75 75" fill="none" xmlns="http://www.w3.org/2000/svg">
<path d="M25.7812 9.375V16.0714H49.2188V9.375C49.2188 8.63839 48.6914 8.03571 48.0469 8.03571H26.9531C26.3086 8.03571 25.7812 8.63839 25.7812 9.375ZM18.75 16.0714V9.375C18.75 4.20201 22.4268 0 26.9531 0H48.0469C52.5732 0 56.25 4.20201 56.25 9.375V16.0714H60.3662C62.2266 16.0714 64.0137 16.9252 65.332 18.4319L72.9346 27.1205C74.2529 28.6272 75 30.6696 75 32.7958V48.2143H56.25V42.8571C56.25 39.894 54.1553 37.5 51.5625 37.5C48.9697 37.5 46.875 39.894 46.875 42.8571V48.2143H28.125V42.8571C28.125 39.894 26.0303 37.5 23.4375 37.5C20.8447 37.5 18.75 39.894 18.75 42.8571V48.2143H0V32.7958C0 30.6696 0.74707 28.6272 2.06543 27.1205L9.66797 18.4319C10.9863 16.9252 12.7734 16.0714 14.6338 16.0714H18.75ZM0 64.2857V53.5714H18.75C18.75 56.5346 20.8447 58.9286 23.4375 58.9286C26.0303 58.9286 28.125 56.5346 28.125 53.5714H46.875C46.875 56.5346 48.9697 58.9286 51.5625 58.9286C54.1553 58.9286 56.25 56.5346 56.25 53.5714H75V64.2857C75 70.1953 70.7959 75 65.625 75H9.375C4.2041 75 0 70.1953 0 64.2857Z" fill="#178BF6"/>
</svg>
