<?xml version="1.0" encoding="UTF-8"?>
<svg version="1.1" xmlns="http://www.w3.org/2000/svg" width="1920" height="1048">
<path d="M0 0 C12.37497521 1.12499775 12.37497521 1.12499775 16.51486301 1.85973167 C17.46593502 2.02621259 18.41700703 2.19269351 19.3968994 2.36421931 C20.90714036 2.63571191 20.90714036 2.63571191 22.44789124 2.91268921 C23.54898297 3.10680055 24.6500747 3.30091189 25.78453285 3.50090539 C29.45487716 4.14908765 33.12402584 4.80379722 36.79321289 5.45849609 C39.44487471 5.92814967 42.09659928 6.39743492 44.74840736 6.86626053 C50.47425261 7.87930007 56.19949792 8.89567358 61.92435265 9.9142952 C70.30895222 11.40613385 78.69449302 12.89262662 87.08026547 14.37785648 C100.93689969 16.83216128 114.79283672 19.29037914 128.64837646 21.75085449 C149.14898035 25.39128796 169.65076621 29.02503649 190.15283203 32.65722656 C191.85892975 32.95948951 193.56502735 33.26175309 195.27112484 33.5640173 C202.05593587 34.76605482 208.84075021 35.96807367 215.62557983 37.17000628 C224.87526084 38.80860095 234.124884 40.44752151 243.37443417 42.08685461 C288.66411419 50.11370787 333.95805406 58.11501487 379.26706696 66.03212357 C392.2240571 68.29624603 405.18048939 70.56355977 418.13671875 72.83203125 C418.88565777 72.96315174 419.63459679 73.09427223 420.40623093 73.22936606 C474.94919904 82.77913413 529.47529954 92.42514321 584.00468016 102.05213153 C587.63406968 102.69288632 591.26346126 103.33362943 594.89285278 103.97437286 C599.98754749 104.87380599 605.08224183 105.77324115 610.17693552 106.67268001 C623.50371701 109.02544635 636.83050249 111.3781901 650.15729744 113.73088022 C653.92411586 114.3958684 657.69093338 115.06086164 661.45774889 115.72586632 C710.35995809 124.35919611 759.26342692 132.98536229 808.16796875 141.60546875 C809.36368044 141.8162301 809.36368044 141.8162301 810.58354792 142.03124925 C831.3726925 145.69562588 852.16189964 149.35964755 872.95113057 153.02353426 C901.13012211 157.98978986 929.30906527 162.95631996 957.48798236 167.92299792 C959.73883936 168.31972237 961.98969669 168.7164449 964.24055409 169.11316705 C1013.94847742 177.87439074 1063.65527404 186.64197929 1113.36080503 195.41676569 C1163.1910693 204.21355169 1213.02281928 213.00189318 1262.85546875 221.78515625 C1263.60546523 221.91734735 1264.35546171 222.04953845 1265.12818536 222.18573534 C1283.07182335 225.3484024 1301.01547735 228.51097861 1318.95913696 231.67352295 C1478.85218789 259.85444976 1478.85218789 259.85444976 1560.7265625 274.30078125 C1561.42161805 274.42342485 1562.11667361 274.54606845 1562.83279145 274.67242852 C1594.49223478 280.2588054 1626.15146039 285.84641559 1657.81054688 291.43481445 C1660.38589092 291.88940675 1662.96123501 292.34399882 1665.53657913 292.79859066 C1666.80344016 293.02221336 1668.07030118 293.24583606 1669.37555194 293.47623521 C1671.91867845 293.92514056 1674.46180503 294.37404552 1677.00493169 294.82295007 C1683.25928953 295.92695016 1689.51364552 297.03096069 1695.76799774 298.1349926 C1727.14032548 303.67285785 1758.51327684 309.20717055 1789.88706881 314.73673451 C1797.22361335 316.02979493 1804.56011747 317.32308442 1811.89659119 318.61654663 C1812.89869887 318.79322258 1813.90080655 318.96989854 1814.93328112 319.15192831 C1818.89591501 319.85056207 1822.85854782 320.54920196 1826.82117546 321.24787116 C1837.99741827 323.21839758 1849.17380266 325.18811583 1860.35046077 327.15628541 C1867.05919029 328.3377357 1873.76774726 329.52016209 1880.47616029 330.70340812 C1884.9902671 331.49957173 1889.50457311 332.29459156 1894.01904827 333.0886637 C1897.34192205 333.6735195 1900.66446831 334.26022663 1903.98706055 334.84667969 C1905.16236989 335.05302977 1906.33767923 335.25937984 1907.54860401 335.47198296 C1909.14866559 335.75495326 1909.14866559 335.75495326 1910.78105164 336.04364014 C1911.69980418 336.20550182 1912.61855673 336.36736351 1913.56515026 336.5341301 C1915.72585603 336.9475469 1917.86578289 337.46644572 1920 338 C1920 564.05 1920 790.1 1920 1023 C1907.62484108 1021.87498555 1907.62484108 1021.87498555 1903.16374207 1021.09074402 C1902.13541228 1020.91222302 1901.1070825 1020.73370203 1900.04759121 1020.54977131 C1898.94931531 1020.35440879 1897.85103941 1020.15904627 1896.71948242 1019.95776367 C1895.51565194 1019.74736796 1894.31182146 1019.53697226 1893.07151127 1019.32020092 C1889.71612951 1018.73276604 1886.36151526 1018.14124559 1883.00716686 1017.54795599 C1879.28356225 1016.890372 1875.55904098 1016.23801484 1871.83465576 1015.58486938 C1864.30761289 1014.26393425 1856.78149119 1012.93781533 1849.25563395 1011.6101439 C1842.93159324 1010.49463619 1836.60716722 1009.3813354 1830.28250122 1008.26937866 C1745.25544865 993.32000544 1660.248455 978.25638697 1570.33526611 962.34332275 C1468.51764364 944.31843513 1468.51764364 944.31843513 1366.67562008 926.43204689 C1354.36170564 924.2785636 1342.04791234 922.12438854 1329.734375 919.96875 C1328.99353715 919.83906232 1328.25269931 919.70937464 1327.48941183 919.57575703 C1276.09774565 910.57866813 1224.72179761 901.49204458 1173.34314358 892.42101383 C1169.96728658 891.82500012 1166.59142754 891.228998 1163.21556854 890.63299561 C1158.47401822 889.79588191 1153.73246824 888.95876629 1148.99091887 888.12164724 C1136.53976239 885.92339997 1124.08860141 883.72517826 1111.63743047 881.52701294 C1108.10369942 880.9031577 1104.56996923 880.27929753 1101.03624105 879.65542603 C1053.67902293 871.2946309 1006.32046018 862.94148099 958.9609375 854.59375 C958.16727763 854.45385677 957.37361775 854.31396354 956.55590758 854.16983113 C935.75925768 850.50414929 914.96254869 846.83880276 894.16581886 843.17357447 C865.81996525 838.17788286 837.47416129 833.18190956 809.12838611 828.18577299 C806.85827038 827.78565006 804.58815433 827.38552892 802.31803823 826.98540807 C752.42463221 818.19139663 702.53233131 809.39114246 652.64131069 800.58360767 C588.87056794 789.32583692 525.09705313 778.08381165 461.32317245 766.84383368 C438.26349208 762.779624 415.20388137 758.71501927 392.14434169 754.65001139 C389.76263259 754.23015643 387.38092324 753.8103029 384.99921381 753.39044976 C370.65827107 750.86239471 356.31733197 748.33431897 341.97640419 745.80617905 C332.38531684 744.11538251 322.79422414 742.42461638 313.203125 740.73388672 C312.41306387 740.59461363 311.62300274 740.45534054 310.80900036 740.31184706 C285.4468808 735.8409928 260.0844943 731.37165488 234.7219608 726.9031495 C209.11554837 722.39167355 183.50938311 717.87879762 157.90354883 713.36404132 C154.33148448 712.73422505 150.75941695 712.10442677 147.18734741 711.47463989 C146.48599527 711.35098496 145.78464313 711.22733002 145.06203789 711.09992797 C133.89865755 709.13176639 122.73499909 707.16518695 111.57122634 705.19925251 C100.46692536 703.24375883 89.36292417 701.28657003 78.2592088 699.32775337 C72.2936312 698.27541184 66.32792781 697.22379828 60.36186218 696.17422676 C54.90986437 695.21507719 49.45825121 694.25377097 44.00692403 693.29081738 C42.05216205 692.94589564 40.09726616 692.60173166 38.14221442 692.25845611 C35.46135229 691.78762 32.78102092 691.31385971 30.1007843 690.83947754 C29.36811938 690.71151434 28.63545446 690.58355115 27.88058758 690.45171028 C18.55299146 688.79349848 9.2955949 686.85911898 0 685 C0 458.95 0 232.9 0 0 Z " fill="#F6F6FF" transform="translate(0,8)"/>
</svg>
