<?xml version="1.0" encoding="UTF-8"?>
<svg version="1.1" xmlns="http://www.w3.org/2000/svg" width="1920" height="1194">
<path d="M0 0 C0 394.02 0 788.04 0 1194 C-633.6 1194 -1267.2 1194 -1920 1194 C-1920 904.59 -1920 615.18 -1920 317 C-1895.87907755 312.40553858 -1895.87907755 312.40553858 -1888.08546448 311.13119507 C-1886.69857126 310.90109367 -1886.69857126 310.90109367 -1885.28365999 310.66634375 C-1882.26575391 310.16625899 -1879.24726856 309.66977243 -1876.22875977 309.17333984 C-1874.01129256 308.80666553 -1871.79386304 308.43976325 -1869.57646751 308.07265568 C-1863.55022452 307.07561978 -1857.52346309 306.08175069 -1851.49660563 305.08843684 C-1845.66437249 304.12666793 -1839.83254674 303.16243587 -1834.00071106 302.19826054 C-1822.09327286 300.22968751 -1810.18545025 298.26344946 -1798.27740479 296.29855347 C-1786.38978791 294.33701287 -1774.50236174 292.37432235 -1762.61517334 290.41018677 C-1761.86849157 290.28681162 -1761.1218098 290.16343647 -1760.3525013 290.03632268 C-1756.56089632 289.40982246 -1752.76929545 288.7832973 -1748.9776969 288.15675819 C-1741.30716922 286.88925174 -1733.63661984 285.6218767 -1725.96606445 284.35453796 C-1724.81905737 284.16502715 -1724.81905737 284.16502715 -1723.64887843 283.97168783 C-1711.92347693 282.03441438 -1700.19797659 280.09773993 -1688.47241211 278.16145325 C-1687.69403151 278.03291601 -1686.91565091 277.90437878 -1686.11368302 277.77194648 C-1682.97455418 277.25357036 -1679.83542488 276.73519705 -1676.69629528 276.21682562 C-1640.46473217 270.23381981 -1604.2340237 264.24565965 -1568.00390625 258.25390625 C-1565.38295876 257.82045916 -1562.76201124 257.38701227 -1560.14106369 256.9535656 C-1549.72863045 255.23156893 -1539.31620354 253.509534 -1528.90378761 251.78743267 C-1510.71782601 248.77967951 -1492.53179023 245.77237511 -1474.34570312 242.76538086 C-1473.05065314 242.55124955 -1471.75560316 242.33711825 -1470.42130923 242.11649811 C-1465.17924168 241.24974497 -1459.93717365 240.38299476 -1454.69510496 239.51624852 C-1440.22787892 237.12417442 -1425.76066576 234.73202249 -1411.29345703 232.33984375 C-1410.63710401 232.23131464 -1409.98075099 232.12278553 -1409.30450848 232.01096766 C-1358.62209125 223.63053724 -1307.93978964 215.24940764 -1257.25758042 206.86771934 C-1247.51915524 205.25720462 -1237.78072401 203.64672649 -1228.0422883 202.03627549 C-1176.29401889 193.47862358 -1124.545776 184.92081851 -1072.79982114 176.34917998 C-1069.10186674 175.73662851 -1065.40390471 175.1241231 -1061.70594293 174.51161617 C-1046.89030827 172.05763025 -1032.07468448 169.60357988 -1017.25945199 167.14716697 C-1011.56734061 166.20341556 -1005.8751561 165.26010618 -1000.18291461 164.31713986 C-997.02132775 163.79337182 -993.85979239 163.26929648 -990.69834137 162.74470901 C-977.5920235 160.56996963 -964.48238532 158.42079285 -951.360219 156.34349918 C-944.79937402 155.30179402 -938.25490565 154.18854379 -931.71770763 153.00798702 C-926.50222213 152.07092144 -921.27422 151.26683638 -916.02734375 150.52734375 C-912.93135669 150.03368365 -912.93135669 150.03368365 -909.68354797 149.11643982 C-903.54008703 147.56801862 -897.28339339 146.633043 -891.03588867 145.60961914 C-889.60667326 145.37298581 -888.17750638 145.13605927 -886.74838352 144.89886761 C-883.63378958 144.38260714 -880.51885598 143.86846327 -877.40364838 143.35591888 C-872.27460321 142.51202898 -867.1463347 141.66347882 -862.01812744 140.81451416 C-854.44347949 139.5610538 -846.86845473 138.30989213 -839.29318237 137.06021118 C-826.97167176 135.02747576 -814.6509251 132.99013373 -802.33032227 130.9519043 C-800.17858865 130.59595079 -798.02685493 130.2399979 -795.87512112 129.8840456 C-792.5831687 129.33946936 -789.29121732 128.79488689 -785.99926966 128.25028187 C-779.17637657 127.12156013 -772.35342204 125.99321063 -765.53042454 124.86512023 C-729.00982621 118.82681918 -692.49257363 112.76849196 -655.97684363 106.70083618 C-652.54932102 106.13130636 -649.12179296 105.56180934 -645.69426537 104.99230957 C-635.33489949 103.27104387 -624.97554114 101.54973288 -614.61619374 99.82835597 C-533.54394983 86.3568939 -452.47026874 72.89481297 -364.01015413 58.35177988 C-353.31265451 56.59322792 -342.61523047 54.83421732 -331.91796875 53.07421875 C-330.68388771 52.87118232 -330.68388771 52.87118232 -329.42487574 52.66404414 C-297.12920678 47.35016732 -264.83938211 42.00117116 -232.55078125 36.64453125 C-230.72202359 36.34114503 -230.72202359 36.34114503 -228.85632133 36.0316298 C-205.76744799 32.20111823 -182.67890507 28.36861635 -159.59075928 24.53372192 C-158.44665895 24.34369034 -157.30255863 24.15365875 -156.1237886 23.95786864 C-151.57397695 23.2021493 -147.02416649 22.44642279 -142.47437048 21.69060934 C-130.57795346 19.71438614 -118.6813534 17.73928303 -106.78405762 15.76835632 C-105.25194834 15.51452414 -105.25194834 15.51452414 -103.68888736 15.25556403 C-95.3834714 13.8795762 -95.3834714 13.8795762 -91.63066149 13.25802767 C-80.11888466 11.35119597 -68.60887635 9.43438612 -57.1017065 7.49994469 C-51.98944937 6.64074434 -46.87625377 5.7872049 -41.76269108 4.93581164 C-38.53017793 4.397257 -35.29842893 3.8546766 -32.06763268 3.30590439 C-28.66070923 2.72734938 -25.25216764 2.15949998 -21.84301758 1.59423828 C-20.41178149 1.34662687 -20.41178149 1.34662687 -18.95163155 1.09401321 C-12.40253361 0.02415853 -6.81813092 0 0 0 Z " fill="#F6F6FF" transform="translate(1920,0)"/>
</svg>
