<svg width="128" height="128" viewBox="0 0 128 128" fill="none" xmlns="http://www.w3.org/2000/svg">
<rect width="128" height="128" rx="8" fill="white"/>
<g clip-path="url(#clip0_447_1188)">
<path fill-rule="evenodd" clip-rule="evenodd" d="M8.70567 64.0882H27.822L28.7727 67.7048L22.2545 78.4807H17.9004L24.4797 67.6036H19.8352L13.256 78.4807H8.90172L15.481 67.6036H10.9334L4.35414 78.4807H0L8.70567 64.0882ZM58.2867 67.4609L53.7315 74.9918L49.065 78.4807H38.7035L47.4093 64.0882H57.3826L58.2867 67.4609ZM49.7839 74.3192L53.4578 68.2452L53.2945 67.6731H49.595L45.222 74.9028H48.8628L49.7839 74.3192ZM34.9328 69.3578H41.1938L39.0279 72.8734H32.8064L31.4949 75.0416H38.7877L36.7073 78.4807H25.0605L33.7661 64.0882H33.7887H45.4129L43.2865 67.6036H35.994L34.9328 69.3578ZM81.8191 64.0893L79.5288 67.7424H71.4484L67.5566 74.1764L67.7488 75.0416H75.1667L73.1123 78.5572L63.7896 78.4981L62.6657 75.0639L69.3046 64.0882L81.8191 64.0893ZM62.6972 64.0883H67.0514L58.3458 78.4808H53.9915L62.6972 64.0883Z" fill="#0F0FCF"/>
<path fill-rule="evenodd" clip-rule="evenodd" d="M89.4978 80.1625H93.8519L93.8324 80.1948L98.7235 80.2279L99.7432 83.8345L96.0779 89.8938L92.9989 89.8934L94.1873 94.555H89.8331L88.6443 89.8929H87.9663L85.1463 94.555H80.792L89.4978 80.1625ZM91.62 83.8526L90.1413 86.2971H93.8994L95.4681 83.8557L91.62 83.8526ZM77.1965 80.1625H84.6359L85.5864 83.7792L79.0685 94.555H74.7142L77.5711 89.832H72.9267L70.07 94.555H65.7157L72.2949 83.678L77.1965 80.1625ZM79.5008 86.6418L81.0965 83.8503H76.4521L74.8564 86.6418H79.5008ZM72.8689 80.1637L70.5786 83.8167H62.4981L58.6064 90.2507L58.7986 91.1159H66.2164L64.1621 94.6316L54.8394 94.5725L53.7155 91.1382L60.3544 80.1625L72.8689 80.1637Z" fill="black"/>
<path fill-rule="evenodd" clip-rule="evenodd" d="M97.4803 62.8128L111.383 62.7731L120.091 50.5279L103.431 53.094L97.4803 62.8128L82.63 62.6638L87.0642 55.4216L81.3271 56.5906C77.2098 57.3579 74.034 56.0905 79.0236 49.4072L71.4606 49.601L63.4159 62.74L48.5018 62.7764L56.5145 49.8837L39.7207 49.9548L30.093 65.6788L29.0311 61.7936L43.4354 38.6806L84.2842 34.1655C93.1853 32.9827 90.2701 38.4599 88.7426 40.5127L81.326 50.4804C79.4378 53.0181 76.858 55.646 82.6584 54.3854L128 44.5312L100.677 82.1784L103.437 75.0893L89.9353 75.1356L97.4803 62.8128ZM56.5145 49.8837L71.4606 49.601L79.2897 36.8142L63.3005 38.6066L56.5145 49.8837Z" fill="black"/>
<path d="M98.4818 92.5255H96.9356L96.6535 93.0499H98.1257C98.3575 93.0499 98.4911 93.0908 98.5289 93.172C98.5665 93.254 98.5258 93.4051 98.4061 93.6271L98.2257 93.9627C98.1071 94.1832 97.985 94.3352 97.8598 94.4163C97.7346 94.4974 97.557 94.5383 97.3253 94.5383H95.8668C95.6359 94.5383 95.5015 94.4974 95.4644 94.4163C95.4262 94.3352 95.468 94.1832 95.5863 93.9627L95.6223 93.8957L96.1631 93.7918L96.0081 94.08H97.6777L97.9776 93.5225H96.5046C96.2752 93.5225 96.1426 93.4815 96.1052 93.4004C96.0688 93.3192 96.1098 93.1681 96.2289 92.9468L96.374 92.6768C96.4931 92.4554 96.6148 92.3041 96.7388 92.2223C96.8634 92.1411 97.0401 92.1002 97.2695 92.1002H98.6099C98.8317 92.1002 98.9639 92.1396 99.0058 92.2175C99.048 92.2963 99.0154 92.435 98.9079 92.635L98.8803 92.686L98.3318 92.8042L98.4818 92.5255ZM99.3121 93.806H99.3952C99.4349 93.806 99.4567 93.8178 99.4609 93.8414C99.4639 93.8658 99.4475 93.9115 99.411 93.9791L99.2048 94.3628C99.1649 94.4367 99.1298 94.4848 99.101 94.506C99.0712 94.5273 99.0105 94.5383 98.9182 94.5383H98.5103C98.4707 94.5383 98.4492 94.5257 98.4455 94.5014C98.443 94.4769 98.4593 94.4304 98.4958 94.3628L98.702 93.9791C98.7409 93.9068 98.7755 93.8595 98.8045 93.8383C98.8342 93.8169 98.8952 93.806 98.9873 93.806H99.3121ZM102.523 92.5208H101.289L100.923 93.2012H102.157C102.253 93.2012 102.325 93.1869 102.376 93.1586C102.426 93.1295 102.471 93.0791 102.51 93.0066L102.668 92.7128C102.706 92.642 102.715 92.5924 102.696 92.5632C102.676 92.535 102.619 92.5208 102.523 92.5208ZM99.6642 94.5383L100.975 92.1002H102.993C103.181 92.1002 103.298 92.1372 103.341 92.212C103.386 92.2861 103.364 92.4058 103.274 92.5719L102.966 93.1452C102.877 93.3097 102.771 93.4296 102.646 93.5043C102.522 93.5792 102.365 93.6169 102.177 93.6169H101.869L102.464 94.5383H101.676L101.22 93.6169H100.699L100.204 94.5383H99.6642ZM103.509 93.806H103.592C103.632 93.806 103.654 93.8178 103.658 93.8414C103.661 93.8658 103.644 93.9115 103.608 93.9791L103.402 94.3628C103.362 94.4367 103.327 94.4848 103.298 94.506C103.268 94.5273 103.207 94.5383 103.115 94.5383H102.707C102.668 94.5383 102.646 94.5257 102.642 94.5014C102.64 94.4769 102.656 94.4304 102.693 94.3628L102.899 93.9791C102.938 93.9068 102.972 93.8595 103.001 93.8383C103.031 93.8169 103.092 93.806 103.184 93.806H103.509ZM104.813 92.6758C104.931 92.4547 105.053 92.3033 105.177 92.2223C105.301 92.1411 105.477 92.1002 105.707 92.1002H107.444C107.675 92.1002 107.808 92.1411 107.844 92.2223C107.882 92.3033 107.841 92.4547 107.722 92.6758L107.03 93.9618C106.91 94.1847 106.788 94.3367 106.664 94.417C106.54 94.4982 106.363 94.5383 106.133 94.5383H104.396C104.166 94.5383 104.033 94.4982 103.997 94.417C103.96 94.3367 104.001 94.1847 104.121 93.9618L104.813 92.6758ZM104.606 94.08H106.418L107.249 92.5349H105.437L104.606 94.08ZM108.134 93.806H108.217C108.257 93.806 108.279 93.8178 108.283 93.8414C108.286 93.8658 108.27 93.9115 108.233 93.9791L108.027 94.3628C107.987 94.4367 107.952 94.4848 107.923 94.506C107.893 94.5273 107.833 94.5383 107.74 94.5383H107.333C107.293 94.5383 107.271 94.5257 107.268 94.5014C107.265 94.4769 107.282 94.4304 107.318 94.3628L107.524 93.9791C107.563 93.9068 107.598 93.8595 107.627 93.8383C107.656 93.8169 107.717 93.806 107.81 93.806H108.134Z" fill="black"/>
</g>
<defs>
<clipPath id="clip0_447_1188">
<rect width="128" height="60.6316" fill="white" transform="translate(0 34)"/>
</clipPath>
</defs>
</svg>
