<svg width="40" height="40" viewBox="0 0 40 40" fill="none" xmlns="http://www.w3.org/2000/svg">
<g filter="url(#filter0_d_447_1174)">
<rect x="4" width="32" height="32" rx="2" fill="white"/>
<g clip-path="url(#clip0_447_1174)">
<path fill-rule="evenodd" clip-rule="evenodd" d="M6.17642 15.522H10.9555L11.1932 16.4262L9.56364 19.1202H8.4751L10.1199 16.4009H8.95881L7.31401 19.1202H6.22543L7.87025 16.4009H6.73335L5.08854 19.1202H4L6.17642 15.522ZM18.5717 16.3652L17.4329 18.248L16.2662 19.1202H13.6759L15.8523 15.522H18.3456L18.5717 16.3652ZM16.446 18.0798L17.3645 16.5613L17.3236 16.4183H16.3987L15.3055 18.2257H16.2157L16.446 18.0798ZM12.7332 16.8394H14.2985L13.757 17.7183H12.2016L11.8737 18.2604H13.6969L13.1768 19.1202H10.2651L12.4415 15.522H12.4472H15.3532L14.8216 16.4009H12.9985L12.7332 16.8394ZM24.4548 15.5223L23.8822 16.4356H21.8621L20.8892 18.0441L20.9372 18.2604H22.7917L22.2781 19.1393L19.9474 19.1245L19.6664 18.266L21.3262 15.522L24.4548 15.5223ZM19.6743 15.5221H20.7628L18.5864 19.1202H17.4979L19.6743 15.5221Z" fill="#0F0FCF"/>
<path fill-rule="evenodd" clip-rule="evenodd" d="M26.3745 19.5406H27.463L27.4581 19.5487L28.6809 19.557L28.9358 20.4586L28.0195 21.9735L27.2498 21.9733L27.5469 23.1388H26.4583L26.1611 21.9732H25.9916L25.2866 23.1388H24.198L26.3745 19.5406ZM26.905 20.4631L26.5354 21.0743H27.4749L27.8671 20.4639L26.905 20.4631ZM23.2992 19.5406H25.159L25.3966 20.4448L23.7672 23.1388H22.6786L23.3928 21.958H22.2317L21.5175 23.1388H20.429L22.0738 20.4195L23.2992 19.5406ZM23.8752 21.1604L24.2742 20.4626H23.1131L22.7141 21.1604H23.8752ZM22.2173 19.5409L21.6447 20.4542H19.6246L18.6516 22.0627L18.6997 22.279H20.5541L20.0405 23.1579L17.7099 23.1431L17.4289 22.2846L19.0886 19.5406L22.2173 19.5409Z" fill="black"/>
<path fill-rule="evenodd" clip-rule="evenodd" d="M28.3701 15.2032L31.8459 15.1933L34.0227 12.132L29.8578 12.7735L28.3701 15.2032L24.6575 15.1659L25.7661 13.3554L24.3318 13.6477C23.3025 13.8395 22.5085 13.5226 23.7559 11.8518L21.8652 11.9003L19.854 15.185L16.1255 15.1941L18.1287 11.9709L13.9302 11.9887L11.5233 15.9197L11.2578 14.9484L14.8589 9.17015L25.0711 8.04137C27.2964 7.74567 26.5676 9.11499 26.1857 9.62818L24.3315 12.1201C23.8595 12.7545 23.2145 13.4115 24.6646 13.0964L36 10.6328L29.1692 20.0446L29.8593 18.2723L26.4839 18.2839L28.3701 15.2032ZM18.1287 11.9709L21.8652 11.9003L23.8225 8.70357L19.8251 9.15165L18.1287 11.9709Z" fill="black"/>
<path d="M28.6204 22.6314H28.2339L28.1634 22.7625H28.5314C28.5894 22.7625 28.6228 22.7727 28.6322 22.793C28.6416 22.8135 28.6315 22.8513 28.6015 22.9068L28.5564 22.9907C28.5268 23.0458 28.4962 23.0838 28.465 23.1041C28.4337 23.1244 28.3893 23.1346 28.3313 23.1346H27.9667C27.909 23.1346 27.8754 23.1244 27.8661 23.1041C27.8566 23.0838 27.867 23.0458 27.8966 22.9907L27.9056 22.9739L28.0408 22.9479L28.002 23.02H28.4194L28.4944 22.8806H28.1261C28.0688 22.8806 28.0356 22.8704 28.0263 22.8501C28.0172 22.8298 28.0274 22.792 28.0572 22.7367L28.0935 22.6692C28.1233 22.6138 28.1537 22.576 28.1847 22.5556C28.2158 22.5353 28.26 22.5251 28.3174 22.5251H28.6525C28.7079 22.5251 28.741 22.5349 28.7515 22.5544C28.762 22.5741 28.7539 22.6087 28.727 22.6587L28.7201 22.6715L28.583 22.7011L28.6204 22.6314ZM28.828 22.9515H28.8488C28.8587 22.9515 28.8642 22.9545 28.8652 22.9604C28.866 22.9664 28.8619 22.9779 28.8528 22.9948L28.8012 23.0907C28.7912 23.1092 28.7825 23.1212 28.7753 23.1265C28.7678 23.1318 28.7526 23.1346 28.7295 23.1346H28.6276C28.6177 23.1346 28.6123 23.1314 28.6114 23.1253C28.6107 23.1192 28.6148 23.1076 28.6239 23.0907L28.6755 22.9948C28.6852 22.9767 28.6939 22.9649 28.7011 22.9596C28.7086 22.9542 28.7238 22.9515 28.7468 22.9515H28.828ZM29.6309 22.6302H29.3222L29.2308 22.8003H29.5394C29.5632 22.8003 29.5813 22.7967 29.5939 22.7897C29.6065 22.7824 29.6177 22.7698 29.6275 22.7517L29.667 22.6782C29.6765 22.6605 29.6788 22.6481 29.674 22.6408C29.669 22.6337 29.6547 22.6302 29.6309 22.6302ZM28.9161 23.1346L29.2439 22.5251H29.7482C29.7953 22.5251 29.8244 22.5343 29.8354 22.553C29.8465 22.5715 29.8409 22.6014 29.8186 22.643L29.7415 22.7863C29.7194 22.8274 29.6928 22.8574 29.6616 22.8761C29.6306 22.8948 29.5913 22.9042 29.5443 22.9042H29.4673L29.6161 23.1346H29.419L29.305 22.9042H29.1749L29.051 23.1346H28.9161ZM29.8772 22.9515H29.898C29.908 22.9515 29.9134 22.9545 29.9144 22.9604C29.9152 22.9664 29.9111 22.9779 29.902 22.9948L29.8504 23.0907C29.8405 23.1092 29.8317 23.1212 29.8245 23.1265C29.817 23.1318 29.8019 23.1346 29.7788 23.1346H29.6768C29.6669 23.1346 29.6615 23.1314 29.6606 23.1253C29.66 23.1192 29.6641 23.1076 29.6732 23.0907L29.7247 22.9948C29.7345 22.9767 29.7431 22.9649 29.7504 22.9596C29.7578 22.9542 29.773 22.9515 29.7961 22.9515H29.8772ZM30.2031 22.669C30.2329 22.6137 30.2633 22.5758 30.2942 22.5556C30.3252 22.5353 30.3693 22.5251 30.4267 22.5251H30.8611C30.9187 22.5251 30.952 22.5353 30.9611 22.5556C30.9704 22.5758 30.9602 22.6137 30.9305 22.669L30.7576 22.9905C30.7276 23.0462 30.697 23.0842 30.666 23.1043C30.6351 23.1246 30.5909 23.1346 30.5333 23.1346H30.0989C30.0415 23.1346 30.0082 23.1246 29.9991 23.1043C29.9899 23.0842 30.0002 23.0462 30.0302 22.9905L30.2031 22.669ZM30.1515 23.02H30.6044L30.8122 22.6337H30.3593L30.1515 23.02ZM31.0336 22.9515H31.0544C31.0643 22.9515 31.0697 22.9545 31.0708 22.9604C31.0715 22.9664 31.0674 22.9779 31.0583 22.9948L31.0068 23.0907C30.9968 23.1092 30.988 23.1212 30.9808 23.1265C30.9734 23.1318 30.9582 23.1346 30.9351 23.1346H30.8331C30.8232 23.1346 30.8179 23.1314 30.817 23.1253C30.8163 23.1192 30.8204 23.1076 30.8295 23.0907L30.8811 22.9948C30.8908 22.9767 30.8995 22.9649 30.9067 22.9596C30.9141 22.9542 30.9294 22.9515 30.9524 22.9515H31.0336Z" fill="black"/>
</g>
</g>
<defs>
<filter id="filter0_d_447_1174" x="0" y="0" width="40" height="40" filterUnits="userSpaceOnUse" color-interpolation-filters="sRGB">
<feFlood flood-opacity="0" result="BackgroundImageFix"/>
<feColorMatrix in="SourceAlpha" type="matrix" values="0 0 0 0 0 0 0 0 0 0 0 0 0 0 0 0 0 0 127 0" result="hardAlpha"/>
<feOffset dy="4"/>
<feGaussianBlur stdDeviation="2"/>
<feComposite in2="hardAlpha" operator="out"/>
<feColorMatrix type="matrix" values="0 0 0 0 0 0 0 0 0 0 0 0 0 0 0 0 0 0 0.25 0"/>
<feBlend mode="normal" in2="BackgroundImageFix" result="effect1_dropShadow_447_1174"/>
<feBlend mode="normal" in="SourceGraphic" in2="effect1_dropShadow_447_1174" result="shape"/>
</filter>
<clipPath id="clip0_447_1174">
<rect width="32" height="15.1579" fill="white" transform="translate(4 8)"/>
</clipPath>
</defs>
</svg>
