<svg width="24" height="24" viewBox="0 0 24 24" fill="none" xmlns="http://www.w3.org/2000/svg">
<g filter="url(#filter0_d_447_1167)">
<rect x="4" width="16" height="16" rx="1" fill="white"/>
<g clip-path="url(#clip0_447_1167)">
<path fill-rule="evenodd" clip-rule="evenodd" d="M5.08821 7.76101H7.47775L7.59658 8.21309L6.78182 9.56007H6.23755L7.05996 8.20044H6.47941L5.657 9.56007H5.11272L5.93513 8.20044H5.36668L4.54427 9.56007H4L5.08821 7.76101ZM11.2858 8.18261L10.7164 9.12397L10.1331 9.56007H8.83794L9.92617 7.76101H11.1728L11.2858 8.18261ZM10.223 9.03989L10.6822 8.28064L10.6618 8.20912H10.1994L9.65276 9.11284H10.1079L10.223 9.03989ZM8.3666 8.41971H9.14923L8.87848 8.85916H8.1008L7.93686 9.13019H8.84846L8.58841 9.56007H7.13256L8.22077 7.76101H8.22358H9.67662L9.41081 8.20044H8.49925L8.3666 8.41971ZM14.2274 7.76115L13.9411 8.21779H12.931L12.4446 9.02204L12.4686 9.13019H13.3958L13.139 9.56964L11.9737 9.56226L11.8332 9.13297L12.6631 7.76101L14.2274 7.76115ZM11.8371 7.76102H12.3814L11.2932 9.56009H10.7489L11.8371 7.76102Z" fill="#0F0FCF"/>
<path fill-rule="evenodd" clip-rule="evenodd" d="M15.1872 9.77032H15.7315L15.729 9.77435L16.3404 9.77849L16.4679 10.2293L16.0097 10.9867L15.6248 10.9867L15.7734 11.5694H15.2291L15.0805 10.9866H14.9958L14.6433 11.5694H14.099L15.1872 9.77032ZM15.4525 10.2316L15.2676 10.5371H15.7374L15.9335 10.232L15.4525 10.2316ZM13.6496 9.77032H14.5795L14.6983 10.2224L13.8835 11.5694H13.3393L13.6964 10.979H13.1158L12.7587 11.5694H12.2144L13.0369 10.2097L13.6496 9.77032ZM13.9376 10.5802L14.137 10.2313H13.5565L13.357 10.5802H13.9376ZM13.1086 9.77046L12.8223 10.2271H11.8123L11.3258 11.0313L11.3498 11.1395H12.277L12.0202 11.5789L10.8549 11.5716L10.7144 11.1423L11.5443 9.77032L13.1086 9.77046Z" fill="black"/>
<path fill-rule="evenodd" clip-rule="evenodd" d="M16.185 7.6016L17.9229 7.59664L19.0114 6.06599L16.9289 6.38675L16.185 7.6016L14.3288 7.58297L14.883 6.6777L14.1659 6.82383C13.6512 6.91975 13.2543 6.76132 13.878 5.9259L12.9326 5.95013L11.927 7.5925L10.0627 7.59705L11.0643 5.98547L8.96511 5.99436L7.76164 7.95986L7.62891 7.47421L9.42944 4.58507L14.5355 4.02069C15.6482 3.87284 15.2838 4.55749 15.0928 4.81409L14.1658 6.06005C13.9297 6.37726 13.6073 6.70576 14.3323 6.54818L20 5.31641L16.5846 10.0223L16.9297 9.13617L15.2419 9.14195L16.185 7.6016ZM11.0643 5.98547L12.9326 5.95013L13.9112 4.35178L11.9126 4.57583L11.0643 5.98547Z" fill="black"/>
<path d="M16.3102 11.3157H16.1169L16.0817 11.3812H16.2657C16.2947 11.3812 16.3114 11.3863 16.3161 11.3965C16.3208 11.4067 16.3157 11.4256 16.3008 11.4534L16.2782 11.4953C16.2634 11.5229 16.2481 11.5419 16.2325 11.552C16.2168 11.5622 16.1946 11.5673 16.1657 11.5673H15.9834C15.9545 11.5673 15.9377 11.5622 15.933 11.552C15.9283 11.5419 15.9335 11.5229 15.9483 11.4953L15.9528 11.487L16.0204 11.474L16.001 11.51H16.2097L16.2472 11.4403H16.0631C16.0344 11.4403 16.0178 11.4352 16.0131 11.4251C16.0086 11.4149 16.0137 11.396 16.0286 11.3684L16.0467 11.3346C16.0616 11.3069 16.0768 11.288 16.0923 11.2778C16.1079 11.2676 16.13 11.2625 16.1587 11.2625H16.3262C16.354 11.2625 16.3705 11.2675 16.3757 11.2772C16.381 11.287 16.3769 11.3044 16.3635 11.3294L16.36 11.3358L16.2915 11.3505L16.3102 11.3157ZM16.414 11.4757H16.4244C16.4294 11.4757 16.4321 11.4772 16.4326 11.4802C16.433 11.4832 16.4309 11.4889 16.4264 11.4974L16.4006 11.5453C16.3956 11.5546 16.3912 11.5606 16.3876 11.5633C16.3839 11.5659 16.3763 11.5673 16.3648 11.5673H16.3138C16.3088 11.5673 16.3061 11.5657 16.3057 11.5627C16.3054 11.5596 16.3074 11.5538 16.312 11.5453L16.3378 11.4974C16.3426 11.4884 16.3469 11.4824 16.3506 11.4798C16.3543 11.4771 16.3619 11.4757 16.3734 11.4757H16.414ZM16.8154 11.3151H16.6611L16.6154 11.4001H16.7697C16.7816 11.4001 16.7907 11.3984 16.797 11.3948C16.8033 11.3912 16.8089 11.3849 16.8137 11.3758L16.8335 11.3391C16.8383 11.3303 16.8394 11.324 16.837 11.3204C16.8345 11.3169 16.8273 11.3151 16.8154 11.3151ZM16.458 11.5673L16.6219 11.2625H16.8741C16.8976 11.2625 16.9122 11.2672 16.9177 11.2765C16.9233 11.2858 16.9205 11.3007 16.9093 11.3215L16.8707 11.3932C16.8597 11.4137 16.8464 11.4287 16.8308 11.438C16.8153 11.4474 16.7957 11.4521 16.7721 11.4521H16.7336L16.8081 11.5673H16.7095L16.6525 11.4521H16.5874L16.5255 11.5673H16.458ZM16.9386 11.4757H16.949C16.954 11.4757 16.9567 11.4772 16.9572 11.4802C16.9576 11.4832 16.9556 11.4889 16.951 11.4974L16.9252 11.5453C16.9202 11.5546 16.9158 11.5606 16.9122 11.5633C16.9085 11.5659 16.9009 11.5673 16.8894 11.5673H16.8384C16.8335 11.5673 16.8308 11.5657 16.8303 11.5627C16.83 11.5596 16.832 11.5538 16.8366 11.5453L16.8624 11.4974C16.8672 11.4884 16.8716 11.4824 16.8752 11.4798C16.8789 11.4771 16.8865 11.4757 16.898 11.4757H16.9386ZM17.1016 11.3345C17.1164 11.3068 17.1317 11.2879 17.1471 11.2778C17.1626 11.2676 17.1847 11.2625 17.2134 11.2625H17.4305C17.4593 11.2625 17.476 11.2676 17.4806 11.2778C17.4852 11.2879 17.4801 11.3068 17.4652 11.3345L17.3788 11.4952C17.3638 11.5231 17.3485 11.5421 17.333 11.5521C17.3176 11.5623 17.2954 11.5673 17.2666 11.5673H17.0495C17.0208 11.5673 17.0041 11.5623 16.9996 11.5521C16.995 11.5421 17.0001 11.5231 17.0151 11.4952L17.1016 11.3345ZM17.0758 11.51H17.3022L17.4061 11.3169H17.1796L17.0758 11.51ZM17.5168 11.4757H17.5272C17.5322 11.4757 17.5349 11.4772 17.5354 11.4802C17.5358 11.4832 17.5337 11.4889 17.5292 11.4974L17.5034 11.5453C17.4984 11.5546 17.494 11.5606 17.4904 11.5633C17.4867 11.5659 17.4791 11.5673 17.4676 11.5673H17.4166C17.4116 11.5673 17.4089 11.5657 17.4085 11.5627C17.4082 11.5596 17.4102 11.5538 17.4148 11.5453L17.4405 11.4974C17.4454 11.4884 17.4497 11.4824 17.4533 11.4798C17.4571 11.4771 17.4647 11.4757 17.4762 11.4757H17.5168Z" fill="black"/>
</g>
</g>
<defs>
<filter id="filter0_d_447_1167" x="0" y="0" width="24" height="24" filterUnits="userSpaceOnUse" color-interpolation-filters="sRGB">
<feFlood flood-opacity="0" result="BackgroundImageFix"/>
<feColorMatrix in="SourceAlpha" type="matrix" values="0 0 0 0 0 0 0 0 0 0 0 0 0 0 0 0 0 0 127 0" result="hardAlpha"/>
<feOffset dy="4"/>
<feGaussianBlur stdDeviation="2"/>
<feComposite in2="hardAlpha" operator="out"/>
<feColorMatrix type="matrix" values="0 0 0 0 0 0 0 0 0 0 0 0 0 0 0 0 0 0 0.25 0"/>
<feBlend mode="normal" in2="BackgroundImageFix" result="effect1_dropShadow_447_1167"/>
<feBlend mode="normal" in="SourceGraphic" in2="effect1_dropShadow_447_1167" result="shape"/>
</filter>
<clipPath id="clip0_447_1167">
<rect width="16" height="7.57895" fill="white" transform="translate(4 4)"/>
</clipPath>
</defs>
</svg>
