<svg width="107" height="50" viewBox="0 0 107 50" fill="none" xmlns="http://www.w3.org/2000/svg">
<g clip-path="url(#clip0_21_45)">
<path fill-rule="evenodd" clip-rule="evenodd" d="M7.27739 24.8122H23.2574L24.0521 27.7947L18.6034 36.6811H14.9636L20.4635 27.7113H16.581L11.0812 36.6811H7.44129L12.9412 27.7113H9.13966L3.63979 36.6811H0L7.27739 24.8122ZM48.724 27.5936L44.9162 33.804L41.0153 36.6811H32.3537L39.6312 24.8122H47.9683L48.724 27.5936ZM41.6162 33.2493L44.6874 28.2404L44.5509 27.7685H41.4583L37.8028 33.7306H40.8463L41.6162 33.2493ZM29.2016 29.1578H34.4355L32.6249 32.057H27.4241L26.3278 33.845H32.4241L30.685 36.6811H20.949L28.2264 24.8122H28.2452H37.9624L36.1848 27.7113H30.0887L29.2016 29.1578ZM68.3957 24.8132L66.4811 27.8257H59.7264L56.4731 33.1316L56.6338 33.845H62.8346L61.1173 36.7442L53.3241 36.6955L52.3846 33.8634L57.9343 24.8122L68.3957 24.8132ZM52.4109 24.8124H56.0508L48.7734 36.6812H45.1335L52.4109 24.8124Z" fill="#2a8b00"/>
<path fill-rule="evenodd" clip-rule="evenodd" d="M74.8145 38.068H78.4543L78.438 38.0947L82.5267 38.122L83.3791 41.0961L80.3151 46.093L77.7413 46.0926L78.7347 49.9369H75.0948L74.1011 46.0922H73.5343L71.177 49.9369H67.5371L74.8145 38.068ZM76.5886 41.111L75.3525 43.127H78.494L79.8054 41.1136L76.5886 41.111ZM64.5315 38.068H70.7503L71.5449 41.0505L66.0963 49.9369H62.4564L64.8446 46.042H60.9621L58.5741 49.9369H54.9342L60.4341 40.9671L64.5315 38.068ZM66.4577 43.4112L67.7916 41.1092H63.9092L62.5753 43.4112H66.4577ZM60.9139 38.069L58.9993 41.0815H52.2446L48.9913 46.3873L49.1519 47.1008H55.3528L53.6355 50L45.8423 49.9512L44.9028 47.1192L50.4525 38.068L60.9139 38.069Z" fill="black"/>
<path fill-rule="evenodd" clip-rule="evenodd" d="M81.4874 23.7605L93.1095 23.7278L100.388 13.6298L86.4621 15.7459L81.4874 23.7605L69.0736 23.6376L72.7803 17.6653L67.9844 18.6294C64.5426 19.2622 61.8878 18.217 66.0588 12.7056L59.7366 12.8654L53.0117 23.7005L40.5445 23.7305L47.2426 13.0985L33.2041 13.1572L25.1559 26.124L24.2682 22.9201L36.3093 3.85982L70.4564 0.136429C77.8971 -0.838959 75.4602 3.67788 74.1833 5.3707L67.9835 13.5906C66.405 15.6833 64.2485 17.8505 69.0973 16.8109L107 8.68461L84.1595 39.7305L86.4671 33.8844L75.1803 33.9226L81.4874 23.7605ZM47.2426 13.0985L59.7366 12.8654L66.2813 2.32077L52.9152 3.79881L47.2426 13.0985Z" fill="black"/>
<path d="M82.3246 48.2632H81.0321L80.7963 48.6957H82.027C82.2207 48.6957 82.3324 48.7294 82.364 48.7964C82.3954 48.8639 82.3614 48.9886 82.2613 49.1717L82.1106 49.4484C82.0114 49.6302 81.9093 49.7556 81.8047 49.8224C81.7 49.8894 81.5516 49.9231 81.3579 49.9231H80.1387C79.9456 49.9231 79.8333 49.8894 79.8023 49.8224C79.7704 49.7556 79.8053 49.6302 79.9042 49.4484L79.9343 49.3932L80.3863 49.3074L80.2567 49.5451H81.6524L81.9031 49.0854H80.6718C80.48 49.0854 80.3692 49.0516 80.3379 48.9847C80.3075 48.9177 80.3418 48.7931 80.4413 48.6106L80.5626 48.3879C80.6622 48.2054 80.7639 48.0806 80.8676 48.0132C80.9717 47.9462 81.1195 47.9125 81.3112 47.9125H82.4317C82.6172 47.9125 82.7276 47.945 82.7627 48.0092C82.798 48.0742 82.7707 48.1886 82.6808 48.3535L82.6578 48.3956L82.1993 48.4931L82.3246 48.2632ZM83.0187 49.3191H83.0882C83.1214 49.3191 83.1395 49.3289 83.1431 49.3484C83.1456 49.3685 83.1319 49.4062 83.1014 49.462L82.929 49.7783C82.8957 49.8393 82.8664 49.879 82.8423 49.8965C82.8173 49.914 82.7666 49.9231 82.6894 49.9231H82.3485C82.3154 49.9231 82.2974 49.9127 82.2943 49.8926C82.2922 49.8724 82.3059 49.8341 82.3363 49.7783L82.5087 49.462C82.5412 49.4023 82.5702 49.3633 82.5944 49.3458C82.6192 49.3282 82.6702 49.3191 82.7472 49.3191H83.0187ZM85.7032 48.2593H84.6713L84.3654 48.8204H85.3972C85.4768 48.8204 85.5375 48.8086 85.5796 48.7853C85.6218 48.7613 85.6593 48.7197 85.6918 48.66L85.824 48.4177C85.8558 48.3593 85.8634 48.3183 85.8473 48.2943C85.8307 48.271 85.7827 48.2593 85.7032 48.2593ZM83.3131 49.9231L84.4092 47.9125H86.0956C86.2529 47.9125 86.3505 47.943 86.387 48.0047C86.4244 48.0658 86.4056 48.1645 86.3309 48.3015L86.0731 48.7743C85.9991 48.9099 85.9103 49.0088 85.8058 49.0704C85.7022 49.1321 85.571 49.1633 85.4137 49.1633H85.1562L85.6539 49.9231H84.9949L84.6137 49.1633H84.1785L83.7643 49.9231H83.3131ZM86.527 49.3191H86.5965C86.6298 49.3191 86.6479 49.3289 86.6514 49.3484C86.654 49.3685 86.6402 49.4062 86.6098 49.462L86.4374 49.7783C86.4041 49.8393 86.3747 49.879 86.3506 49.8965C86.3257 49.914 86.2749 49.9231 86.1978 49.9231H85.8568C85.8237 49.9231 85.8057 49.9127 85.8027 49.8926C85.8005 49.8724 85.8142 49.8341 85.8447 49.7783L86.0171 49.462C86.0496 49.4023 86.0785 49.3633 86.1028 49.3458C86.1276 49.3282 86.1786 49.3191 86.2556 49.3191H86.527ZM87.6168 48.3872C87.7162 48.2048 87.818 48.08 87.9213 48.0132C88.0247 47.9462 88.1725 47.9125 88.3644 47.9125H89.8168C90.0093 47.9125 90.1209 47.9462 90.1513 48.0132C90.1824 48.08 90.1482 48.2048 90.0488 48.3872L89.4706 49.4477C89.3703 49.6315 89.2682 49.7568 89.1645 49.8231C89.0611 49.89 88.9132 49.9231 88.7207 49.9231H87.2682C87.0763 49.9231 86.965 49.89 86.9346 49.8231C86.9038 49.7568 86.938 49.6315 87.0385 49.4477L87.6168 48.3872ZM87.4442 49.5451H88.9585L89.6532 48.271H88.1389L87.4442 49.5451ZM90.3935 49.3191H90.463C90.4963 49.3191 90.5144 49.3289 90.5179 49.3484C90.5205 49.3685 90.5067 49.4062 90.4763 49.462L90.3039 49.7783C90.2705 49.8393 90.2412 49.879 90.2171 49.8965C90.1922 49.914 90.1414 49.9231 90.0643 49.9231H89.7233C89.6902 49.9231 89.6722 49.9127 89.6692 49.8926C89.667 49.8724 89.6807 49.8341 89.7112 49.7783L89.8836 49.462C89.9161 49.4023 89.945 49.3633 89.9692 49.3458C89.9941 49.3282 90.045 49.3191 90.1221 49.3191H90.3935Z" fill="black"/>
</g>
<defs>
<clipPath id="clip0_21_45">
<rect width="107" height="50" fill="white"/>
</clipPath>
</defs>
</svg>
