<svg width="19" height="24" viewBox="0 0 19 24" fill="none" xmlns="http://www.w3.org/2000/svg">
<path d="M10.6727 23.4607C13.2109 20.4435 19 13.1309 19 9.02335C19 4.04171 14.7448 0 9.5 0C4.25521 0 0 4.04171 0 9.02335C0 13.1309 5.78906 20.4435 8.32734 23.4607C8.93594 24.1798 10.0641 24.1798 10.6727 23.4607ZM9.5 6.01557C10.3399 6.01557 11.1453 6.33246 11.7392 6.89653C12.333 7.4606 12.6667 8.22564 12.6667 9.02335C12.6667 9.82106 12.333 10.5861 11.7392 11.1502C11.1453 11.7142 10.3399 12.0311 9.5 12.0311C8.66015 12.0311 7.85469 11.7142 7.26083 11.1502C6.66696 10.5861 6.33333 9.82106 6.33333 9.02335C6.33333 8.22564 6.66696 7.4606 7.26083 6.89653C7.85469 6.33246 8.66015 6.01557 9.5 6.01557Z" fill="#0038FF"/>
</svg>
