<svg width="18" height="19" viewBox="0 0 18 19" fill="none" xmlns="http://www.w3.org/2000/svg">
<path d="M5.79701 1.3656C5.52632 0.711721 4.81268 0.363689 4.13068 0.550009L1.03706 1.39372C0.425372 1.56246 0 2.11791 0 2.75069C0 11.448 7.05203 18.5 15.7493 18.5C16.3821 18.5 16.9375 18.0746 17.1063 17.4629L17.95 14.3693C18.1363 13.6873 17.7883 12.9737 17.1344 12.703L13.7596 11.2968C13.1865 11.0578 12.5221 11.223 12.1319 11.7046L10.7116 13.4377C8.23675 12.2671 6.23293 10.2633 5.06228 7.78836L6.7954 6.37163C7.27702 5.9779 7.44225 5.31699 7.2032 4.74397L5.79701 1.36911V1.3656Z" fill="#0038FF"/>
</svg>
