<svg width="23" height="23" viewBox="0 0 23 23" fill="none" xmlns="http://www.w3.org/2000/svg">
<path d="M0 2.52314V10.3817C0 11.2753 0.352269 12.1321 0.983198 12.7629L10.2368 22.0144C11.5513 23.3285 13.6806 23.3285 14.9951 22.0144L22.0142 14.9969C23.3286 13.6828 23.3286 11.5539 22.0142 10.2397L12.7605 0.98823C12.1296 0.357445 11.2726 0.00525646 10.3788 0.00525646L2.52372 0C1.13041 0 0 1.13016 0 2.52314ZM5.88867 4.20523C6.33489 4.20523 6.76284 4.38245 7.07836 4.69791C7.39389 5.01336 7.57115 5.44121 7.57115 5.88733C7.57115 6.33345 7.39389 6.76129 7.07836 7.07675C6.76284 7.3922 6.33489 7.56942 5.88867 7.56942C5.44245 7.56942 5.01451 7.3922 4.69898 7.07675C4.38346 6.76129 4.20619 6.33345 4.20619 5.88733C4.20619 5.44121 4.38346 5.01336 4.69898 4.69791C5.01451 4.38245 5.44245 4.20523 5.88867 4.20523Z" fill="#0038FF"/>
</svg>
