<svg width="75" height="75" viewBox="0 0 75 75" fill="none" xmlns="http://www.w3.org/2000/svg">
<path d="M37.5 13.269C44.1895 13.269 50.2502 15.979 54.6326 20.3674C59.0149 24.7498 61.731 30.8105 61.731 37.5C61.731 44.1895 59.021 50.2502 54.6326 54.6326C50.2502 59.0149 44.1895 61.731 37.5 61.731C30.8105 61.731 24.7498 59.021 20.3674 54.6326C15.9851 50.2502 13.269 44.1895 13.269 37.5C13.269 30.8105 15.979 24.7498 20.3674 20.3674C24.7498 15.9851 30.8105 13.269 37.5 13.269ZM37.5 0C47.8577 0 57.2327 4.19922 64.0137 10.9863C70.8008 17.7734 75 27.1484 75 37.5C75 47.8577 70.8008 57.2327 64.0137 64.0137C57.2266 70.8008 47.8516 75 37.5 75C27.1423 75 17.7673 70.8008 10.9863 64.0137C4.19922 57.2327 0 47.8577 0 37.5C0 27.1423 4.19922 17.7673 10.9863 10.9863C17.7673 4.19922 27.1423 0 37.5 0ZM57.0496 17.9504C52.0447 12.9456 45.1355 9.85107 37.5 9.85107C29.8645 9.85107 22.9553 12.9456 17.9504 17.9504C12.9456 22.9553 9.85107 29.8645 9.85107 37.5C9.85107 45.1355 12.9456 52.0447 17.9504 57.0496C22.9553 62.0544 29.8645 65.1489 37.5 65.1489C45.1355 65.1489 52.0447 62.0544 57.0496 57.0496C62.0544 52.0447 65.1489 45.1355 65.1489 37.5C65.1489 29.8645 62.0544 22.9553 57.0496 17.9504ZM39.9475 34.6497C39.3249 34.0271 38.4644 33.6426 37.5 33.6426C36.5417 33.6426 35.675 34.0271 35.0525 34.6497L35.0464 34.6558C34.4238 35.2783 34.0393 36.1389 34.0393 37.1033C34.0393 38.0615 34.4238 38.9282 35.0464 39.5508L35.0525 39.5569C35.675 40.1794 36.5356 40.564 37.5 40.564C38.4583 40.564 39.3249 40.1794 39.9475 39.5569L39.9536 39.5508C40.5762 38.9282 40.9607 38.0615 40.9607 37.1033C40.9546 36.1389 40.5701 35.2783 39.9475 34.6497ZM39.7095 30.9998C40.6067 31.3293 41.4185 31.8481 42.0837 32.5134C42.3096 32.7393 42.5232 32.9834 42.7124 33.2459L42.7734 33.2275L55.603 29.7913C54.6082 27.4536 53.1738 25.3479 51.4038 23.584C48.3337 20.5139 44.2505 18.4509 39.7034 17.9443V30.835C39.7156 30.8899 39.7156 30.9448 39.7095 30.9998ZM43.9697 37.616C43.8843 38.6719 43.5486 39.6606 43.0115 40.5212C43.042 40.5579 43.0664 40.6006 43.0908 40.6433L50.4578 52.3193C50.7874 52.0325 51.1047 51.7334 51.416 51.4221C54.9744 47.8638 57.1777 42.9382 57.1777 37.5061C57.1777 36.3647 57.0801 35.2478 56.8909 34.1553L43.9697 37.616ZM39.4104 43.3044C38.8062 43.4937 38.1653 43.5913 37.5 43.5913C36.9019 43.5913 36.322 43.512 35.7666 43.3594L28.5767 55.0476C31.2561 56.4148 34.2895 57.1838 37.5 57.1838C40.8325 57.1838 43.9697 56.3538 46.7224 54.895L39.4104 43.3044ZM32.0862 40.6738C31.5247 39.8315 31.1584 38.8489 31.0486 37.7991H31.0425L18.1702 33.7708C17.9382 34.9792 17.8162 36.2244 17.8162 37.5C17.8162 42.9321 20.0195 47.8577 23.5779 51.416C23.9624 51.8005 24.3652 52.1729 24.7864 52.5269L31.9885 40.8142C32.0251 40.7715 32.0557 40.7227 32.0862 40.6738ZM32.1777 33.3984C32.3975 33.0872 32.6416 32.7881 32.9163 32.5195C33.5571 31.8848 34.3262 31.3782 35.1807 31.0486C35.1746 30.9814 35.1685 30.9082 35.1685 30.8411V17.9626C30.6641 18.4937 26.6235 20.5444 23.584 23.5901C21.9055 25.2686 20.5261 27.2522 19.5374 29.4495L32.1777 33.3984Z" fill="#178BF6"/>
</svg>
