<svg width="75" height="75" viewBox="0 0 75 75" fill="none" xmlns="http://www.w3.org/2000/svg">
<path d="M35.9458 0.011263C33.7875 0.122683 31.8169 0.363116 29.9636 0.74429C23.6472 2.04615 17.9406 4.85511 12.9555 9.11839C12.1403 9.81623 9.83539 12.1209 9.13747 12.936C3.79457 19.1579 0.756569 26.453 0.0703785 34.6629C-0.0234595 35.7947 -0.0234595 39.2194 0.0703785 40.3512C0.211135 41.9815 0.434001 43.5824 0.733109 45.0426C2.32835 52.8127 6.3106 59.8145 12.1931 65.2096C17.5477 70.1121 24.3568 73.4137 31.4299 74.5396C31.7524 74.5865 32.0867 74.6393 32.1806 74.6569C32.4386 74.6979 33.8286 74.8504 34.6849 74.9266C35.7171 75.0205 39.2184 75.0263 40.3445 74.9325C43.6523 74.6569 46.6081 74.047 49.6403 73.0208C54.1328 71.4902 58.3027 69.0976 62.0445 65.8957C62.8597 65.1979 65.1646 62.8933 65.8625 62.0781C71.2054 55.8562 74.2434 48.5611 74.9296 40.3512C74.9648 39.8645 75 38.5861 75 37.5071C75 35.0089 74.8768 33.4842 74.5015 31.2324C73.4751 25.1277 70.9415 19.3808 67.1059 14.4548C65.1529 11.9449 62.6193 9.44679 60.1032 7.55265C54.3381 3.21313 47.6814 0.691512 40.4031 0.0933621C39.6583 0.0288557 36.6379 -0.0239223 35.9458 0.011263ZM39.8753 16.2845C41.3474 16.4135 42.9426 16.7595 43.7871 17.1406C44.1508 17.3048 44.4557 17.5922 44.5144 17.8326C44.6493 18.3721 44.0217 19.6095 42.9778 20.8586C42.4382 21.5036 41.4177 22.4653 40.7785 22.9169C40.1157 23.3978 39.0894 23.9138 38.5264 24.0604C38.2566 24.1249 37.8988 24.166 37.5 24.166C36.7141 24.166 36.2508 24.0487 35.418 23.6323C34.6028 23.2277 33.8286 22.6823 33.0662 21.9493C32.0281 20.9582 31.207 19.8968 30.7495 18.9527C30.1513 17.7212 30.4387 17.3048 32.2509 16.7829C34.1336 16.2434 37.1071 16.0499 39.8753 16.2845ZM26.6148 21.6209C27.606 22.1311 30.1396 24.5882 30.9783 25.849L31.119 26.066L30.7847 26.3768C30.2979 26.8283 29.6293 27.3151 29.0898 27.6259L28.6147 27.8956L28.4212 27.6786C27.7819 26.9515 26.4213 24.3478 25.9462 22.9638C25.477 21.5799 25.694 21.1459 26.6148 21.6209ZM49.218 21.5447C49.3881 21.7558 49.2649 22.4536 48.8955 23.4036C48.3969 24.6879 47.1067 27.0688 46.5964 27.6552L46.3853 27.8956L45.9102 27.6259C45.3707 27.3151 44.7021 26.8283 44.2153 26.3768L43.881 26.066L44.0276 25.8431C44.3502 25.3564 45.1243 24.4826 45.9982 23.6089C47.2592 22.3539 48.1154 21.6795 48.7019 21.4802C48.9776 21.3863 49.1007 21.4039 49.218 21.5447ZM21.3716 24.8931C22.31 25.4796 23.5827 27.2505 24.2982 28.9629C24.8495 30.2941 25.0371 31.1737 24.9961 32.2762C24.9668 33.0737 24.9023 33.3141 24.5738 33.9827C24.3451 34.4459 23.7293 35.2024 23.2073 35.6481C21.7763 36.8796 19.4714 37.9586 17.7236 38.2108C16.926 38.3281 16.5331 38.1873 16.2926 37.7006C16.1929 37.5071 16.1812 37.337 16.1812 36.4222C16.1812 35.8416 16.2164 35.1438 16.2633 34.8682C16.8205 31.2617 18.4274 27.1391 19.9875 25.3329C20.3101 24.9635 20.4743 24.8404 20.7441 24.7817C20.9669 24.7289 21.1722 24.7641 21.3716 24.8931ZM54.5199 24.8755C54.6078 24.9225 54.8131 25.1101 54.9773 25.2978C56.5432 27.0805 58.1737 31.2265 58.7367 34.8682C58.7836 35.1438 58.8188 35.8416 58.8188 36.4222C58.8188 37.5833 58.7778 37.771 58.4376 38.0583C57.9098 38.4981 56.1562 38.1404 54.1856 37.1845C52.0625 36.1642 50.6666 34.8213 50.1388 33.3141C49.998 32.9271 49.9511 31.7074 50.0508 31.1503C50.4555 28.8104 52.1681 25.8138 53.6284 24.8873C53.9041 24.7172 54.1914 24.7113 54.5199 24.8755ZM38.0748 29.3969C38.3797 29.6256 38.497 29.866 38.497 30.2413C38.497 30.6401 38.3445 30.904 37.9985 31.0975C37.5411 31.3555 36.937 31.2089 36.6379 30.7691C36.4619 30.5111 36.4502 29.995 36.6144 29.7311C36.7493 29.5024 37.066 29.2561 37.2654 29.2209C37.5293 29.174 37.8754 29.2502 38.0748 29.3969ZM30.8668 34.2817C31.2774 34.399 31.5765 34.8095 31.5765 35.2552C31.5765 36.0234 30.7437 36.516 30.0809 36.1407C29.5003 35.8123 29.3713 35.0969 29.7994 34.5867C29.9578 34.399 30.3097 34.229 30.5501 34.2231C30.6146 34.2231 30.7613 34.2466 30.8668 34.2817ZM44.9484 34.3697C45.1537 34.4753 45.3883 34.8154 45.4469 35.0851C45.4645 35.1848 45.4528 35.3725 45.4234 35.5015C45.183 36.3811 44.0217 36.5512 43.5643 35.7713C43.4001 35.4956 43.3766 35.0734 43.5056 34.8213C43.6229 34.5984 43.9044 34.3463 44.1038 34.2817C44.3208 34.2114 44.7255 34.2524 44.9484 34.3697ZM25.0782 41.0197C25.2483 41.4478 25.5943 42.7028 25.5943 42.9139C25.5943 43.1778 23.3129 43.7055 21.2074 43.9284C19.8291 44.075 19.0198 44.0163 18.75 43.7407C18.5799 43.5765 18.6034 43.4417 18.8497 43.1367C19.4245 42.4095 22.1164 40.9024 24.0694 40.2222L24.6266 40.0287L24.7615 40.2984C24.8377 40.445 24.9785 40.7676 25.0782 41.0197ZM51.5464 40.4509C52.8015 40.9435 54.7955 42.0225 55.599 42.6324C56.5784 43.3771 56.6019 43.7994 55.6752 43.9577C54.9128 44.0867 53.3234 43.9401 51.4701 43.5707C50.52 43.383 49.6579 43.1426 49.4702 43.0253C49.3998 42.9784 49.3998 42.9021 49.4937 42.4799C49.6403 41.7879 49.8514 41.1429 50.1212 40.5506L50.3558 40.0404L50.6608 40.1284C50.825 40.1753 51.2238 40.3219 51.5464 40.4509ZM33.7699 42.5562C34.4033 42.9901 34.3506 43.9753 33.6702 44.3037C32.6967 44.7728 31.77 43.6645 32.4034 42.779C32.6849 42.3744 33.3535 42.2688 33.7699 42.5562ZM42.233 42.4975C43.0188 42.8787 42.9778 44.0339 42.1626 44.3389C41.2418 44.6907 40.4266 43.729 40.9251 42.8787C41.1949 42.4154 41.7344 42.2571 42.233 42.4975ZM27.0312 47.4176C27.864 47.488 28.4916 47.6522 29.1132 47.9571C29.512 48.1506 29.7114 48.2972 30.1161 48.7019C30.6967 49.2824 31.0076 49.775 31.3771 50.6957C31.8697 51.9272 32.0985 53.1176 32.1454 54.6951C32.1688 55.5571 32.1571 55.9031 32.0809 56.3664C31.8287 57.8442 31.3595 58.026 29.5238 57.3457C26.2629 56.1377 21.5065 52.3963 20.3746 50.1503C19.9875 49.388 20.2455 48.9599 21.4127 48.4028C22.9903 47.658 25.2483 47.2593 27.0312 47.4176ZM50.3148 47.4821C51.476 47.6463 52.7428 48.004 53.5873 48.4028C54.7545 48.9599 55.0125 49.388 54.6254 50.1503C53.4935 52.4022 48.743 56.1318 45.4762 57.3457C43.6405 58.026 43.1713 57.8442 42.9191 56.3664C42.8429 55.9031 42.8312 55.5571 42.8546 54.6951C42.9015 53.1176 43.1303 51.9272 43.6229 50.6957C43.9924 49.775 44.3033 49.2824 44.8839 48.7019C45.4586 48.1272 46.0393 47.7988 46.8545 47.5935C47.7518 47.3648 49.1828 47.3238 50.3148 47.4821ZM38.3094 50.4377C38.6437 50.4553 38.9486 50.4846 38.9955 50.508C39.3005 50.6195 38.7844 54.6071 38.2624 56.167C37.7463 57.7093 37.2537 57.7093 36.7376 56.167C36.3388 54.9707 35.9224 52.3377 35.9165 50.983C35.9165 50.5608 35.9282 50.5256 36.0514 50.4963C36.2273 50.4494 37.4414 50.3673 37.588 50.3849C37.6525 50.3966 37.9751 50.4201 38.3094 50.4377Z" fill="#178BF6"/>
</svg>
