<?xml version="1.0" encoding="utf-8"?>
<!-- Generator: Adobe Illustrator 21.0.0, SVG Export Plug-In . SVG Version: 6.00 Build 0)  -->
<svg version="1.1" id="Vrstva_1" xmlns="http://www.w3.org/2000/svg" xmlns:xlink="http://www.w3.org/1999/xlink" x="0px" y="0px"
	 viewBox="0 0 1394.1 503.4" style="enable-background:new 0 0 1394.1 503.4;" xml:space="preserve">
<style type="text/css">
	.st0{fill:#E41F13;}
</style>
<g>
	<path class="st0" d="M122.8,30.2C52.2,69.5,3.7,143.5,0,229.1l17,0.7c3.4-79.5,48.5-148.2,114-184.7L122.8,30.2z"/>
	<path class="st0" d="M266.7,70l-5.3,33.6c40.9,6.4,75.8,30.9,96.4,65c0,0.1,0.1,0.1,0.1,0.2c1.7,2.8,3.2,5.6,4.7,8.5
		c4.2-6.5,9.2-12.6,15.1-18.2c3-2.8,6.1-5.4,9.4-7.9C361.4,108.7,317.8,78.1,266.7,70z"/>
	<path class="st0" d="M372.5,417.7l-10-13.4c-34.2,25.5-76.7,40.6-122.7,40.6c-50.1,0-95.9-17.9-131.6-47.6l-22,26.3
		C127.7,458.2,181,479,239.3,479c96.2,0,179.1-56.7,217.2-138.5c-6.3-0.1-12.4-0.5-18.2-1.4C422.6,370.1,400,397.1,372.5,417.7z"/>
	<path class="st0" d="M365.1,296.1c-21.6,47.7-69.6,80.9-125.3,80.9l-0.1-34c-57.2,0-103.6-46.4-103.6-103.6h-33.8
		c0,25.2,6.8,48.8,18.6,69.1l-29.5,17.1c-14.7-25.3-23.2-54.7-23.2-86.1c0-47.4,19.2-90.2,50.2-121.3l24,24
		c24.9-24.9,59.3-40.3,97.3-40.3V34c74.8,0,140.3,40,176.3,99.8c0,0.1,0.1,0.1,0.1,0.2c0.3,0.5,0.6,1.1,1,1.7
		c10.9-3.6,22.7-5.7,35.4-6.2c-2.3-4.4-4.7-8.7-7.2-12.9c0,0,0,0,0,0l0,0C403.4,46.7,327.1,0,239.8,0C203.4,0,168.9,8.1,138,22.6
		l14.4,30.8C82.6,86.3,34.3,157.2,34.3,239.5c0,4.5,0.1,8.9,0.4,13.3l-33.9,2c3.6,56.7,26.9,108,63.1,147.1l49.9-46.1
		c31.3,33.9,76.2,55.1,126,55.1c47.4,0,90.2-19.2,121.3-50.2l24,24c14.4-14.4,26.7-31,36.3-49.2c-14.4-4.1-27.1-10.9-38-20.2
		C376.3,309.6,370.2,303.2,365.1,296.1z"/>
</g>
<g>
	<path d="M288.6,251.5l55.9,6.4c-3.1,11.6-8.1,21.7-15.2,30.2c-7,8.5-16,15.1-26.9,19.8c-10.9,4.7-24.8,7.1-41.6,7.1
		c-16.3,0-29.8-1.5-40.6-4.5c-10.8-3-20.1-7.9-27.9-14.7c-7.8-6.8-13.9-14.7-18.3-23.9c-4.4-9.1-6.6-21.2-6.6-36.3
		c0-15.8,2.7-28.9,8.1-39.4c3.9-7.7,9.3-14.6,16.2-20.7c6.8-6.1,13.9-10.6,21.1-13.6c11.4-4.7,26.1-7.1,44-7.1
		c25,0,44.1,4.5,57.2,13.4c13.1,8.9,22.3,22,27.6,39.3l-55.3,7.4c-1.7-6.5-4.9-11.5-9.5-14.8c-4.6-3.3-10.7-5-18.4-5
		c-9.7,0-17.6,3.5-23.6,10.4c-6,7-9,17.5-9,31.6c0,12.6,3,22.1,8.9,28.7c6,6.5,13.6,9.8,22.8,9.8c7.7,0,14.2-2,19.4-5.9
		C282.1,265.7,286,259.7,288.6,251.5z"/>
	<path d="M371,235.3c0-23.4,7.9-42.6,23.7-57.8c15.8-15.2,37.1-22.7,63.9-22.7c30.7,0,53.9,8.9,69.6,26.7c12.6,14.3,18.9,32,18.9,53
		c0,23.6-7.8,42.9-23.4,57.9C508,307.5,486.3,315,458.7,315c-24.6,0-44.6-6.3-59.8-18.8C380.3,280.7,371,260.4,371,235.3z
		 M429.9,235.2c0,13.7,2.8,23.8,8.3,30.3c5.5,6.5,12.5,9.8,20.9,9.8c8.5,0,15.4-3.2,20.9-9.7c5.4-6.4,8.2-16.8,8.2-31
		c0-13.3-2.7-23.2-8.2-29.7c-5.5-6.5-12.3-9.7-20.3-9.7c-8.6,0-15.6,3.3-21.2,9.9C432.7,211.7,429.9,221.7,429.9,235.2z"/>
	<path d="M584.8,158.3h55v25.1c5.3-10.9,10.8-18.4,16.4-22.4c5.6-4.1,12.6-6.1,20.9-6.1c8.7,0,18.1,2.7,28.4,8.1l-18.2,41.9
		c-6.9-2.9-12.4-4.3-16.5-4.3c-7.7,0-13.7,3.2-17.9,9.5c-6.1,8.9-9.1,25.7-9.1,50.2v51.4h-59V158.3z"/>
	<path d="M776.7,207.9l-56.1-5.9c2.1-9.8,5.2-17.5,9.2-23.2c4-5.6,9.7-10.5,17.2-14.7c5.4-3,12.8-5.3,22.2-6.9
		c9.4-1.6,19.6-2.5,30.6-2.5c17.6,0,31.7,1,42.4,3c10.7,2,19.6,6.1,26.7,12.3c5,4.3,8.9,10.5,11.8,18.4c2.9,7.9,4.3,15.5,4.3,22.7
		v67.7c0,7.2,0.5,12.9,1.4,17c0.9,4.1,2.9,9.3,6,15.7h-55.1c-2.2-3.9-3.7-6.9-4.3-9c-0.7-2.1-1.3-5.3-2-9.7
		c-7.7,7.4-15.3,12.7-22.9,15.9c-10.4,4.2-22.5,6.3-36.2,6.3c-18.3,0-32.2-4.2-41.6-12.7c-9.5-8.5-14.2-18.9-14.2-31.3
		c0-11.6,3.4-21.2,10.2-28.7c6.8-7.5,19.4-13.1,37.8-16.7c22-4.4,36.3-7.5,42.9-9.3c6.5-1.8,13.5-4.1,20.8-7
		c0-7.2-1.5-12.3-4.5-15.2c-3-2.9-8.2-4.3-15.7-4.3c-9.6,0-16.8,1.5-21.6,4.6C782,196.8,779,201.3,776.7,207.9z M827.6,238.8
		c-8.1,2.9-16.5,5.4-25.3,7.6c-11.9,3.2-19.5,6.3-22.7,9.4c-3.3,3.2-4.9,6.8-4.9,10.8c0,4.6,1.6,8.4,4.8,11.3
		c3.2,2.9,8,4.4,14.2,4.4c6.5,0,12.6-1.6,18.3-4.8c5.6-3.2,9.6-7,12-11.6c2.4-4.6,3.5-10.5,3.5-17.8V238.8z"/>
	<path d="M948.2,126.3h64.7v73.3h70.7v-73.3h65v209.4h-65V251h-70.7v84.7h-64.7V126.3z"/>
	<path d="M1200.6,126.3h121.1c20.2,0,35.7,5,46.5,15c10.8,10,16.2,22.4,16.2,37.1c0,12.4-3.9,23-11.6,31.8
		c-5.1,5.9-12.7,10.6-22.6,14c15,3.6,26.1,9.8,33.2,18.6c7.1,8.8,10.6,19.9,10.6,33.2c0,10.9-2.5,20.6-7.6,29.3
		c-5,8.7-12,15.5-20.7,20.6c-5.4,3.1-13.6,5.4-24.6,6.9c-14.6,1.9-24.2,2.9-29,2.9h-111.7V126.3z M1265.9,208.4h28.1
		c10.1,0,17.1-1.7,21.1-5.2c3.9-3.5,5.9-8.5,5.9-15.1c0-6.1-2-10.9-5.9-14.3c-4-3.4-10.8-5.1-20.6-5.1h-28.6V208.4z M1265.9,290.7
		h33c11.1,0,19-2,23.6-5.9c4.6-4,6.9-9.3,6.9-15.9c0-6.2-2.3-11.2-6.8-14.9c-4.5-3.8-12.5-5.6-23.8-5.6h-32.9V290.7z"/>
</g>
<g>
	<path d="M508.8,433.6l-23.1-2.5c1.7-4.1,3.6-7.4,5.8-9.7c2.2-2.4,5-4.4,8.5-6.2c2.5-1.3,5.8-2.2,9.9-2.9c4.1-0.7,8.5-1,13.1-1
		c7.4,0,13.3,0.4,17.6,1.2c4.3,0.8,7.7,2.6,10.2,5.2c1.7,1.8,2.9,4.4,3.4,7.7c0.6,3.3,0.5,6.5-0.1,9.6l-5.7,28.5
		c-0.6,3-0.9,5.4-0.8,7.1c0,1.7,0.4,3.9,1.2,6.6h-23.2c-0.6-1.7-1-2.9-1.1-3.8c-0.1-0.9-0.1-2.2,0-4.1c-3.9,3.1-7.5,5.3-11,6.7
		c-4.7,1.8-10,2.7-15.8,2.7c-7.7,0-13.2-1.8-16.5-5.3c-3.3-3.6-4.4-8-3.4-13.2c1-4.9,3.2-8.9,6.7-12.1c3.5-3.2,9.3-5.5,17.3-7
		c9.6-1.9,15.9-3.2,18.8-3.9c2.9-0.7,6-1.7,9.3-2.9c0.6-3,0.4-5.2-0.6-6.4c-1-1.2-3.1-1.8-6.3-1.8c-4,0-7.2,0.6-9.5,1.9
		C512,428.9,510.4,430.8,508.8,433.6z M527.7,446.6c-3.6,1.2-7.4,2.3-11.3,3.2c-5.3,1.3-8.7,2.7-10.3,3.9c-1.6,1.3-2.6,2.9-3,4.6
		c-0.4,1.9,0,3.5,1.1,4.8c1.1,1.2,3,1.9,5.6,1.9c2.8,0,5.4-0.7,8.1-2c2.6-1.3,4.6-3,6-4.9c1.4-1.9,2.4-4.4,3-7.5L527.7,446.6z"/>
	<path d="M680.1,477.2H657l2.1-10.4c-4.3,4.3-8.4,7.3-12.2,9.2c-3.9,1.8-8.3,2.7-13.4,2.7c-6.8,0-11.7-2-14.8-6.1
		c-3.1-4.1-3.7-10.3-2.1-18.8l8.2-41h24.8l-7,35.5c-0.8,4-0.6,6.9,0.5,8.6c1.2,1.7,3.1,2.5,5.8,2.5c3,0,5.6-1.1,7.9-3.4
		c2.3-2.3,4.1-6.3,5.3-12.2l6.2-31h24.7L680.1,477.2z"/>
	<path d="M793.7,388.2l-4.9,24.5h13.6l-3.6,18.1h-13.6l-4.5,22.9c-0.5,2.7-0.6,4.6-0.3,5.4c0.5,1.4,1.8,2.1,3.8,2.1
		c1.8,0,4.5-0.5,8-1.6l-1.6,17.1c-6.4,1.3-12.2,2-17.5,2c-6.2,0-10.5-0.8-13.1-2.4c-2.6-1.6-4.3-4-5-7.2c-0.8-3.2-0.4-8.4,1-15.6
		l4.5-22.7h-9.1l3.6-18.1h9.1l2.4-11.8L793.7,388.2z"/>
	<path d="M856.9,445.2c2-9.8,6.9-17.9,14.8-24.3c7.9-6.4,17.5-9.6,28.8-9.6c12.9,0,21.9,3.7,27,11.2c4.1,6,5.3,13.5,3.5,22.3
		c-2,9.9-6.9,18-14.7,24.4c-7.8,6.3-17.6,9.5-29.2,9.5c-10.4,0-18.2-2.6-23.6-7.9C857,464.3,854.8,455.7,856.9,445.2z M881.7,445.1
		c-1.1,5.7-0.8,10,1,12.8c1.8,2.8,4.4,4.1,8,4.1c3.6,0,6.8-1.4,9.6-4.1c2.8-2.7,4.8-7.1,6-13.1c1.1-5.6,0.8-9.7-1-12.5
		c-1.8-2.7-4.3-4.1-7.7-4.1c-3.6,0-6.9,1.4-9.8,4.2C884.8,435.2,882.8,439.4,881.7,445.1z"/>
	<path d="M1075.2,388.2l-17.7,89h-23.1l1.9-9.5c-4,4-7.5,6.8-10.5,8.2c-3.9,1.9-8.1,2.8-12.5,2.8c-8.8,0-14.8-3.3-18.1-10
		c-3.3-6.7-4-14.8-2.1-24.3c2.1-10.7,6.3-18.9,12.6-24.5c6.2-5.7,13.3-8.5,21.2-8.5c3.8,0,7.2,0.6,10.1,1.9c2.9,1.3,5.3,3.2,7.2,5.8
		l6.1-30.8H1075.2z M1039.2,444.8c1-5.1,0.7-8.8-1-11.3c-1.6-2.5-4.1-3.7-7.4-3.7c-2.9,0-5.5,1.2-7.9,3.6c-2.4,2.4-4.2,6.4-5.3,12
		c-1,5.3-0.8,9.1,0.7,11.6c1.5,2.4,3.8,3.7,6.7,3.7c3.2,0,6-1.2,8.6-3.7C1036.3,454.4,1038.1,450.4,1039.2,444.8z"/>
	<path d="M1136.2,412.7h24.7l-12.8,64.5h-24.7L1136.2,412.7z M1153.1,386.7h21.3l-23.2,18.2h-11.8L1153.1,386.7z"/>
	<path d="M1235.3,388.2h24.8l-17.7,89h-24.8L1235.3,388.2z"/>
	<path d="M1314,412.7h26.1l4.8,42.9l20.9-42.9h24.3l-39.3,68.9c-4.5,7.9-8.5,13.2-12.1,15.9c-5.1,3.9-12,5.8-20.8,5.8
		c-3.6,0-9-0.5-16.2-1.5l1.5-17.2c3.3,1.1,7.2,1.7,11.5,1.7c2.9,0,5.4-0.7,7.5-2c2.1-1.3,4.1-3.7,6-7.2L1314,412.7z"/>
</g>
</svg>
